<svg preserveAspectRatio="none" width="100%" height="100%" overflow="visible" style="display: block;" viewBox="0 0 45 45" fill="none" xmlns="http://www.w3.org/2000/svg">
<g id="Frame">
<path id="Vector" d="M18.3955 15.4292C18.3955 16.8486 19.5557 18.0044 20.9795 18.0044C22.4033 18.0044 23.5635 16.8486 23.5635 15.4292C23.5635 14.0098 22.4033 12.854 20.9795 12.854C19.5557 12.8496 18.3955 14.0054 18.3955 15.4292Z" fill="var(--fill-0, #9EA9FF)"/>
<path id="Vector_2" d="M21.0542 36.6196H9.21533V14.981L20.9619 8.6001L34.3652 15.8555C35.2529 16.3389 36.3735 16.0093 36.8569 15.1216L37.3931 14.146C37.437 14.0625 37.4502 13.9658 37.4238 13.8779C37.3975 13.79 37.3359 13.7109 37.2524 13.667L21.1509 4.94824C21.0981 4.91309 21.0322 4.89551 20.9619 4.89551C20.8916 4.89551 20.8301 4.91309 20.7729 4.94824L2.30273 14.981C2.21924 15.0249 2.15771 15.0996 2.13135 15.1919C2.10498 15.2798 2.11377 15.3765 2.16211 15.46L2.69824 16.4355C3.18604 17.3232 4.30225 17.6484 5.18994 17.1694L5.90625 16.7783V36.7998L5.91504 37.0151V37.0283C5.98096 37.8193 6.33252 38.5488 6.91699 39.085C7.49707 39.6211 8.25293 39.9155 9.04394 39.9155H22.5439C22.7373 39.9155 22.8955 39.7573 22.8955 39.564V38.4565C22.8955 37.4458 22.0693 36.6196 21.0542 36.6196Z" fill="var(--fill-0, #9EA9FF)"/>
<path id="Vector_3" d="M40.043 21.1245L40.0386 21.1201L39.7705 20.8521C39.7705 20.8521 39.7661 20.8477 39.7617 20.8477C38.5752 19.7227 37.0986 18.9888 35.4814 18.7251C33.8687 18.4614 32.2339 18.6855 30.7485 19.3755C30.7441 19.3755 30.7441 19.3799 30.7397 19.3799L30.6738 19.4106C27.6504 17.9604 24.0161 18.5273 21.5771 20.8433C21.5728 20.8433 21.5728 20.8477 21.5684 20.8477L21.3003 21.1157L21.2959 21.1201C19.8589 22.6318 19.0898 24.6094 19.1426 26.6968C19.1953 28.7842 20.0522 30.7222 21.564 32.1636L29.4565 39.6826L29.4697 39.6958C29.7861 39.9683 30.1904 40.1177 30.6035 40.1089L30.7705 40.1177H30.7925C31.1836 40.1089 31.5659 39.9639 31.8604 39.7046C31.8647 39.7002 31.8691 39.6958 31.8735 39.6958L39.7661 32.1768L39.7705 32.1724L40.0342 31.9087L40.0386 31.9043C42.9214 28.8677 42.917 24.1392 40.043 21.1245ZM23.7173 23.4229L23.8843 23.2559C25.3477 21.8716 27.5361 21.5552 29.3291 22.4648L30.5024 23.0581C30.5991 23.1064 30.7178 23.1064 30.8145 23.0581L32.2075 22.3726L32.4888 22.2539C34.1895 21.6123 36.1406 22.0078 37.459 23.2603L37.626 23.4272C39.2651 25.1499 39.2695 27.8525 37.6304 29.5796L37.4194 29.7905L30.6738 36.2197L23.8755 29.7422L23.6689 29.5312C22.0781 27.8086 22.1001 25.1235 23.7173 23.4229Z" fill="var(--fill-0, #9EA9FF)"/>
</g>
</svg>
