<svg preserveAspectRatio="none" width="100%" height="100%" overflow="visible" style="display: block;" viewBox="0 0 39 39" fill="none" xmlns="http://www.w3.org/2000/svg">
<g id="Frame">
<path id="Vector" d="M19.5 24.1695C18.7516 24.1695 18.0243 23.9934 17.452 23.6741L1.84776 14.9359C1.00873 14.469 0.527027 13.7185 0.527027 12.8805C0.527027 12.0405 1.00873 11.29 1.84881 10.8209L17.452 2.08597C18.5935 1.44616 20.4033 1.44511 21.5491 2.08597L37.1533 10.8209C37.9923 11.291 38.473 12.0415 38.473 12.8816C38.473 13.7206 37.9913 14.4701 37.1522 14.9391L21.548 23.6741C20.9767 23.9945 20.2494 24.1705 19.5 24.1705V24.1695ZM4.42176 12.8784L18.9487 21.0115C19.0436 21.0642 19.2502 21.1169 19.5 21.1169C19.7857 21.1169 19.9817 21.0505 20.0513 21.0115L34.5793 12.8784L20.0523 4.74641C19.9575 4.6937 19.7498 4.641 19.5 4.641C19.2154 4.641 19.0194 4.70635 18.9498 4.74641L4.42176 12.8784ZM19.5053 35.334C13.0576 35.334 6.51089 33.2786 6.21786 29.347C6.20372 29.2634 6.19667 29.1788 6.19678 29.094V17.491C6.19678 16.6477 6.88192 15.9647 7.72622 15.9647C8.13139 15.9644 8.52009 16.125 8.80688 16.4112C9.09367 16.6974 9.25509 17.0858 9.25565 17.491V28.9127C9.26197 28.9665 9.26619 29.0223 9.26619 29.0782C9.27884 30.2081 13.1757 32.2825 19.5042 32.2825C25.8338 32.2825 29.7296 30.2081 29.7412 29.0782L29.7433 29.016V17.4899C29.7433 16.6467 30.4284 15.9636 31.2727 15.9636C32.1181 15.9636 32.8022 16.6477 32.8022 17.4899V29.0951C32.8022 29.1351 32.8011 29.1741 32.7979 29.2142C32.6441 33.2322 26.0235 35.334 19.5042 35.334H19.5053ZM36.7232 31.3655C36.3183 31.3655 35.9298 31.2048 35.6433 30.9186C35.3567 30.6324 35.1954 30.2442 35.1949 29.8392V17.725C35.1949 16.8817 35.8789 16.1987 36.7232 16.1987C37.5686 16.1987 38.2527 16.8817 38.2527 17.725V29.8392C38.2527 30.6825 37.5675 31.3655 36.7243 31.3655H36.7232Z" fill="var(--fill-0, #7B8396)"/>
</g>
</svg>
