<svg preserveAspectRatio="none" width="100%" height="100%" overflow="visible" style="display: block;" viewBox="0 0 28 28" fill="none" xmlns="http://www.w3.org/2000/svg">
<path id="Vector" d="M9.71893 0H2.77704C2.04115 0.00203825 1.33598 0.29529 0.815629 0.815676C0.295273 1.33606 0.00203814 2.04127 0 2.77721L0 9.71949C0.00203814 10.4554 0.295273 11.1606 0.815629 11.681C1.33598 12.2014 2.04115 12.4947 2.77704 12.4967H9.71893C10.4548 12.4947 11.16 12.2014 11.6803 11.681C12.2007 11.1606 12.4939 10.4554 12.496 9.71949V2.77721C12.4939 2.04127 12.2007 1.33606 11.6803 0.815676C11.16 0.29529 10.4548 0.00203825 9.71893 0ZM9.95015 8.56237C9.949 8.93023 9.80237 9.2827 9.54226 9.54282C9.28216 9.80294 8.92971 9.94958 8.56187 9.95073H3.93362C3.56578 9.94958 3.21333 9.80294 2.95323 9.54282C2.69312 9.2827 2.54649 8.93023 2.54534 8.56237V3.93385C2.54649 3.56599 2.69312 3.21352 2.95323 2.9534C3.21333 2.69328 3.56578 2.54664 3.93362 2.54549H8.56187C8.92971 2.54664 9.28216 2.69328 9.54226 2.9534C9.80237 3.21352 9.949 3.56599 9.95015 3.93385V8.56237ZM18.0491 12.4962H24.991C25.7269 12.4942 26.432 12.2009 26.9524 11.6805C27.4727 11.1602 27.766 10.4549 27.768 9.71901V2.77721C27.766 2.04127 27.4727 1.33606 26.9524 0.815676C26.432 0.29529 25.7269 0.00203825 24.991 0L18.0491 0C17.3132 0.00203826 16.608 0.29529 16.0877 0.815676C15.5673 1.33606 15.2741 2.04127 15.272 2.77721V9.71949C15.2742 10.4553 15.5675 11.1604 16.0878 11.6807C16.6082 12.201 17.3133 12.4942 18.0491 12.4962ZM17.8179 3.93385C17.819 3.56599 17.9657 3.21352 18.2258 2.9534C18.4859 2.69328 18.8383 2.54664 19.2062 2.54549H23.8344C24.2022 2.54664 24.5547 2.69328 24.8148 2.9534C25.0749 3.21352 25.2215 3.56599 25.2227 3.93385V8.56237C25.2215 8.93023 25.0749 9.2827 24.8148 9.54282C24.5547 9.80294 24.2022 9.94958 23.8344 9.95073H19.2062C18.8383 9.94958 18.4859 9.80294 18.2258 9.54282C17.9657 9.2827 17.819 8.93023 17.8179 8.56237V3.93385ZM9.71893 15.2734H2.77704C2.04115 15.2755 1.33598 15.5687 0.815629 16.0891C0.295273 16.6095 0.00203814 17.3147 0 18.0506L0 24.9929C0.00203814 25.7289 0.295273 26.4341 0.815629 26.9544C1.33598 27.4748 2.04115 27.7681 2.77704 27.7701H9.71893C10.4548 27.7681 11.16 27.4748 11.6803 26.9544C12.2007 26.4341 12.4939 25.7289 12.496 24.9929V18.0501C12.4938 17.3143 12.2005 16.6092 11.6802 16.0889C11.1598 15.5686 10.4547 15.2755 9.71893 15.2734ZM9.95015 23.8358C9.949 24.2037 9.80237 24.5561 9.54226 24.8162C9.28216 25.0764 8.92971 25.223 8.56187 25.2241H3.93362C3.56578 25.223 3.21333 25.0764 2.95323 24.8162C2.69312 24.5561 2.54649 24.2037 2.54534 23.8358V19.2073C2.54649 18.8394 2.69312 18.4869 2.95323 18.2268C3.21333 17.9667 3.56578 17.8201 3.93362 17.8189H8.56187C8.92971 17.8201 9.28216 17.9667 9.54226 18.2268C9.80237 18.4869 9.949 18.8394 9.95015 19.2073V23.8358ZM27.3761 19.9256L22.702 15.566C22.3202 15.2119 21.8139 15.0233 21.2935 15.0414C20.7732 15.0594 20.2811 15.2828 19.9249 15.6625L15.5655 20.3369C15.2115 20.7186 15.0229 21.225 15.041 21.7454C15.0591 22.2658 15.2824 22.7578 15.6621 23.1141L20.3362 27.4742C20.7179 27.8283 21.2243 28.0169 21.7446 27.9988C22.265 27.9807 22.757 27.7574 23.1132 27.3777L27.4726 22.7033C27.8279 22.3217 28.0172 21.8147 27.9988 21.2937C27.9804 20.7726 27.7559 20.2802 27.3746 19.9246L27.3761 19.9256ZM24.6729 22.11L22.3264 24.628C22.1483 24.8178 21.9023 24.9294 21.6422 24.9384C21.3821 24.9475 21.129 24.8532 20.9381 24.6762L18.4203 22.3296C18.2305 22.1515 18.1189 21.9055 18.1099 21.6454C18.1008 21.3853 18.1951 21.1321 18.372 20.9413L20.7185 18.4233C20.8966 18.2335 21.1426 18.1219 21.4027 18.1128C21.6628 18.1038 21.9159 18.1981 22.1068 18.375L24.6246 20.7216C24.8132 20.9004 24.9239 21.1462 24.9327 21.4059C24.9416 21.6656 24.8479 21.9183 24.6719 22.1095L24.6729 22.11Z" fill="var(--fill-0, #CCCF34)"/>
</svg>
