<svg preserveAspectRatio="none" width="100%" height="100%" overflow="visible" style="display: block;" viewBox="0 0 34 34" fill="none" xmlns="http://www.w3.org/2000/svg">
<g id="Group 255">
<path id="Union" d="M17 0C26.3888 0 34 7.61116 34 17C34 26.3888 26.3888 34 17 34C7.61116 34 0 26.3888 0 17C0 7.61116 7.61116 0 17 0ZM17 4C9.8203 4 4 9.8203 4 17C4 24.1797 9.8203 30 17 30C24.1797 30 30 24.1797 30 17C30 9.8203 24.1797 4 17 4ZM21.2471 20.5723C21.8298 19.9834 22.7803 19.9788 23.3691 20.5615C23.9576 21.1443 23.9625 22.0939 23.3799 22.6826C19.6894 26.4117 13.6746 26.4431 9.94531 22.7529C9.35648 22.1702 9.35087 21.2197 9.93359 20.6309C10.5163 20.0421 11.4659 20.0376 12.0547 20.6201C14.6062 23.1452 18.7219 23.1237 21.2471 20.5723ZM12 11C13.1046 11 14 11.8954 14 13V16C14 17.1046 13.1046 18 12 18C10.8954 18 10 17.1046 10 16V13C10 11.8954 10.8954 11 12 11ZM22 11C23.1046 11 24 11.8954 24 13V16C24 17.1046 23.1046 18 22 18C20.8954 18 20 17.1046 20 16V13C20 11.8954 20.8954 11 22 11Z" fill="var(--fill-0, #7B8396)"/>
</g>
</svg>
