<svg preserveAspectRatio="none" width="100%" height="100%" overflow="visible" style="display: block;" viewBox="0 0 40.3779 42.1753" fill="none" xmlns="http://www.w3.org/2000/svg">
<g id="Frame" filter="url(#filter0_d_0_4)">
<path id="Union" d="M10.6748 6.04151C14.1157 2.31305 19.9267 2.07901 23.6553 5.51905C27.3846 8.96005 27.618 14.772 24.1777 18.5005C24.1316 18.552 24.0829 18.6019 24.0352 18.6519C24.3852 18.7115 24.7002 18.901 24.917 19.1821C25.1337 19.4633 25.2364 19.8158 25.2051 20.1694C25.1737 20.5233 25.0101 20.8526 24.7471 21.0913C24.4841 21.3298 24.1411 21.4605 23.7861 21.4575H18.2744V21.4566L18.251 21.4761H13.8926C12.0188 21.4762 10.2216 22.2205 8.89648 23.5454C7.57131 24.8706 6.82617 26.6684 6.82617 28.5425V31.3501H21.8076L33.3486 18.5327C33.6408 18.2083 34.0418 18.0028 34.4756 17.9536C34.9093 17.9045 35.3459 18.0154 35.7031 18.2661C35.8645 18.3795 36.0006 18.5268 36.1006 18.6968C36.2005 18.8667 36.2625 19.0565 36.2832 19.2524C36.3039 19.4484 36.2829 19.6465 36.2207 19.8335C36.1585 20.0206 36.0569 20.1928 35.9229 20.3374L23.6025 33.6108C23.4792 33.7441 23.3316 33.8526 23.168 33.9312C22.9341 34.0906 22.6571 34.1756 22.374 34.1753H5.41211C5.04119 34.1749 4.68506 34.0294 4.4209 33.7691C4.15675 33.5086 4.00569 33.1546 4 32.7837V28.5444C3.99994 26.3904 4.70219 24.2942 6.00098 22.5757C7.29972 20.8573 9.12408 19.6098 11.1963 19.022C7.46789 15.5818 7.23475 9.77001 10.6748 6.04151ZM17.4268 5.90968C15.7401 5.90968 14.1224 6.58032 12.9297 7.77296C11.737 8.96564 11.0664 10.5833 11.0664 12.27C11.0665 13.9567 11.7371 15.5745 12.9297 16.7671C14.1223 17.9596 15.7402 18.6294 17.4268 18.6294C19.1133 18.6293 20.7312 17.9597 21.9238 16.7671C23.1164 15.5745 23.7861 13.9566 23.7861 12.27C23.7861 10.5835 23.1163 8.96561 21.9238 7.77296C20.7312 6.58036 19.1133 5.90978 17.4268 5.90968ZM34.9648 8.73682C35.3395 8.73695 35.6989 8.88595 35.9639 9.15089C36.2288 9.41591 36.3779 9.77519 36.3779 10.1499C36.3779 10.5246 36.2288 10.8839 35.9639 11.1489C35.6989 11.4139 35.3395 11.5629 34.9648 11.563H32.1377C31.7629 11.563 31.4037 11.414 31.1387 11.1489C30.8736 10.8839 30.7246 10.5247 30.7246 10.1499C30.7246 9.77509 30.8736 9.41593 31.1387 9.15089C31.4037 8.88584 31.7629 8.73683 32.1377 8.73682H34.9648ZM34.9648 4.49659C35.3394 4.49671 35.6989 4.64485 35.9639 4.90968C36.2289 5.17472 36.3779 5.53484 36.3779 5.90968C36.3779 6.28438 36.2288 6.6437 35.9639 6.9087C35.6989 7.17364 35.3395 7.32264 34.9648 7.32276H29.3115C28.9367 7.32276 28.5766 7.17375 28.3115 6.9087C28.0466 6.6437 27.8975 6.28437 27.8975 5.90968C27.8975 5.53484 28.0465 5.17472 28.3115 4.90968C28.5766 4.64472 28.9368 4.49659 29.3115 4.49659H34.9648Z" fill="var(--fill-0, #FF9EDA)"/>
</g>
<defs>
<filter id="filter0_d_0_4" x="-2.3125" y="0" width="45" height="45" filterUnits="userSpaceOnUse" color-interpolation-filters="sRGB">
<feFlood flood-opacity="0" result="BackgroundImageFix"/>
<feColorMatrix in="SourceAlpha" type="matrix" values="0 0 0 0 0 0 0 0 0 0 0 0 0 0 0 0 0 0 127 0" result="hardAlpha"/>
<feOffset dy="4"/>
<feGaussianBlur stdDeviation="2"/>
<feComposite in2="hardAlpha" operator="out"/>
<feColorMatrix type="matrix" values="0 0 0 0 0 0 0 0 0 0 0 0 0 0 0 0 0 0 0.25 0"/>
<feBlend mode="normal" in2="BackgroundImageFix" result="effect1_dropShadow_0_4"/>
<feBlend mode="normal" in="SourceGraphic" in2="effect1_dropShadow_0_4" result="shape"/>
</filter>
</defs>
</svg>
