<svg preserveAspectRatio="none" width="100%" height="100%" overflow="visible" style="display: block;" viewBox="0 0 34 34" fill="none" xmlns="http://www.w3.org/2000/svg">
<g id="Frame">
<path id="Vector" d="M10.2 17.85C7.94566 17.85 5.78365 18.7455 4.18959 20.3396C2.59553 21.9337 1.7 24.0957 1.7 26.35V31.45C1.7 31.9009 1.87911 32.3333 2.19792 32.6521C2.51673 32.9709 2.94913 33.15 3.4 33.15C3.85087 33.15 4.28327 32.9709 4.60208 32.6521C4.92089 32.3333 5.1 31.9009 5.1 31.45V26.35C5.1 24.9974 5.63732 23.7002 6.59376 22.7438C7.55019 21.7873 8.8474 21.25 10.2 21.25H13.6C14.9526 21.25 16.2498 21.7873 17.2062 22.7438C18.1627 23.7002 18.7 24.9974 18.7 26.35V31.45C18.7 31.9009 18.8791 32.3333 19.1979 32.6521C19.5167 32.9709 19.9491 33.15 20.4 33.15C20.8509 33.15 21.2833 32.9709 21.6021 32.6521C21.9209 32.3333 22.1 31.9009 22.1 31.45V26.35C22.1 24.0957 21.2045 21.9337 19.6104 20.3396C18.0163 18.7455 15.8543 17.85 13.6 17.85H10.2ZM11.9 0.85C10.0965 0.85 8.36692 1.56643 7.09167 2.84167C5.81643 4.11692 5.1 5.84653 5.1 7.65C5.1 9.45347 5.81643 11.1831 7.09167 12.4583C8.36692 13.7336 10.0965 14.45 11.9 14.45V11.05C10.9983 11.05 10.1335 10.6918 9.49584 10.0542C8.85821 9.41654 8.5 8.55174 8.5 7.65C8.5 6.74826 8.85821 5.88346 9.49584 5.24584C10.1335 4.60821 10.9983 4.25 11.9 4.25V0.85ZM11.9 14.45C13.7035 14.45 15.4331 13.7336 16.7083 12.4583C17.9836 11.1831 18.7 9.45347 18.7 7.65C18.7 5.84653 17.9836 4.11692 16.7083 2.84167C15.4331 1.56643 13.7035 0.85 11.9 0.85V4.25C12.3465 4.25 12.7886 4.33794 13.2011 4.50881C13.6136 4.67968 13.9884 4.93012 14.3042 5.24584C14.6199 5.56156 14.8703 5.93637 15.0412 6.34888C15.2121 6.76138 15.3 7.20351 15.3 7.65C15.3 8.09649 15.2121 8.53862 15.0412 8.95112C14.8703 9.36363 14.6199 9.73844 14.3042 10.0542C13.9884 10.3699 13.6136 10.6203 13.2011 10.7912C12.7886 10.9621 12.3465 11.05 11.9 11.05V14.45ZM29.75 9.35C29.75 11.1535 29.0336 12.8831 27.7583 14.1583C26.4831 15.4336 24.7535 16.15 22.95 16.15C22.7268 16.15 22.5057 16.106 22.2994 16.0206C22.0932 15.9352 21.9058 15.8099 21.7479 15.6521C21.5901 15.4942 21.4648 15.3068 21.3794 15.1006C21.294 14.8943 21.25 14.6732 21.25 14.45C21.25 14.2268 21.294 14.0057 21.3794 13.7994C21.4648 13.5932 21.5901 13.4058 21.7479 13.2479C21.9058 13.0901 22.0932 12.9648 22.2994 12.8794C22.5057 12.794 22.7268 12.75 22.95 12.75C23.8517 12.75 24.7165 12.3918 25.3542 11.7542C25.9918 11.1165 26.35 10.2517 26.35 9.35C26.35 8.44826 25.9918 7.58346 25.3542 6.94584C24.7165 6.30821 23.8517 5.95 22.95 5.95C22.4991 5.95 22.0667 5.77089 21.7479 5.45208C21.4291 5.13327 21.25 4.70087 21.25 4.25C21.25 3.79913 21.4291 3.36673 21.7479 3.04792C22.0667 2.72911 22.4991 2.55 22.95 2.55C24.7535 2.55 26.4831 3.26643 27.7583 4.54167C29.0336 5.81692 29.75 7.54653 29.75 9.35ZM23.8 17.85C26.0543 17.85 28.2163 18.7455 29.8104 20.3396C31.4045 21.9337 32.3 24.0957 32.3 26.35V29.75C32.3 30.2009 32.1209 30.6333 31.8021 30.9521C31.4833 31.2709 31.0509 31.45 30.6 31.45C30.1491 31.45 29.7167 31.2709 29.3979 30.9521C29.0791 30.6333 28.9 30.2009 28.9 29.75V26.35C28.9 24.9974 28.3627 23.7002 27.4062 22.7438C26.4498 21.7873 25.1526 21.25 23.8 21.25C23.3491 21.25 22.9167 21.0709 22.5979 20.7521C22.2791 20.4333 22.1 20.0009 22.1 19.55C22.1 19.0991 22.2791 18.6667 22.5979 18.3479C22.9167 18.0291 23.3491 17.85 23.8 17.85Z" fill="var(--fill-0, #7B8396)"/>
</g>
</svg>
