<svg preserveAspectRatio="none" width="100%" height="100%" overflow="visible" style="display: block;" viewBox="0 0 45 45" fill="none" xmlns="http://www.w3.org/2000/svg">
<g id="Frame">
<path id="Union" d="M21.5771 20.8428C24.016 18.5271 27.6505 17.9601 30.6738 19.4102L30.7402 19.3799C30.7441 19.3796 30.7447 19.375 30.749 19.375C32.2342 18.6853 33.8688 18.461 35.4814 18.7246C37.0986 18.9883 38.5752 19.7227 39.7617 20.8477C39.7655 20.8477 39.7695 20.8507 39.7705 20.8516L40.0429 21.124C42.9169 24.1386 42.9216 28.8677 40.039 31.9043L40.0341 31.9082L39.7705 32.1719L39.7666 32.1768L31.874 39.6953C31.8697 39.6953 31.8646 39.6998 31.8603 39.7041C31.566 39.9633 31.1839 40.1083 30.7929 40.1172H30.7705L30.6035 40.1084C30.1904 40.1172 29.7861 39.9678 29.4697 39.6953L29.457 39.6826L21.5644 32.1631C20.0527 30.7217 19.1953 28.7837 19.1425 26.6963C19.0899 24.6091 19.859 22.6317 21.2959 21.1201L21.5683 20.8477C21.5727 20.8477 21.5727 20.8428 21.5771 20.8428ZM20.9619 4.89551C21.0322 4.89551 21.0986 4.91309 21.1513 4.94824L37.2529 13.667C37.3362 13.711 37.3975 13.7902 37.4238 13.8779C37.4502 13.9658 37.4375 14.063 37.3935 14.1465L36.8574 15.1221C36.3739 16.0096 35.2528 16.3388 34.3652 15.8555L20.9619 8.60059L9.21578 14.9814V36.6201H21.0546C22.0696 36.6203 22.8955 37.4464 22.8955 38.457V39.5645C22.8952 39.7576 22.7371 39.916 22.5439 39.916H9.0439C8.25291 39.916 7.49701 39.6211 6.91695 39.085C6.3325 38.5488 5.98091 37.8193 5.915 37.0283V37.0156L5.90621 36.7998V16.7783L5.19039 17.1699C4.30269 17.6489 3.18599 17.3232 2.6982 16.4355L2.16207 15.46C2.1138 15.3766 2.10555 15.2802 2.13179 15.1924C2.15814 15.1002 2.21932 15.0254 2.30269 14.9814L20.7734 4.94824C20.8304 4.91322 20.8917 4.89552 20.9619 4.89551ZM29.3291 22.4648C27.5362 21.5552 25.3481 21.8718 23.8847 23.2559L23.7177 23.4229C22.1005 25.1235 22.0781 27.8086 23.6689 29.5312L23.8759 29.7422L30.6738 36.2197L37.4199 29.79L37.6308 29.5791C39.2695 27.852 39.2649 25.1493 37.6259 23.4268L37.4589 23.2598C36.1407 22.0076 34.1897 21.6126 32.4892 22.2539L32.208 22.3721L30.8144 23.0576C30.7178 23.1059 30.5995 23.1059 30.5029 23.0576L29.3291 22.4648ZM20.9795 12.8545C22.4033 12.8545 23.5634 14.0103 23.5634 15.4297C23.5632 16.8489 22.4031 18.0049 20.9795 18.0049C19.5558 18.0049 18.3957 16.8489 18.3955 15.4297C18.3955 14.0059 19.5556 12.8501 20.9795 12.8545Z" fill="var(--fill-0, #7B8396)"/>
</g>
</svg>
