<svg preserveAspectRatio="none" width="100%" height="100%" overflow="visible" style="display: block;" viewBox="0 0 204 359" fill="none" xmlns="http://www.w3.org/2000/svg">
<g id="Group 285">
<g id="Rectangle 234" filter="url(#filter0_d_0_19)">
<rect x="32" y="28" width="140" height="295" rx="17" fill="var(--fill-0, white)"/>
</g>
<circle id="Ellipse 136" cx="57.9999" cy="48" r="8" fill="var(--fill-0, #D9D9D9)"/>
<path id="Vector 95 (Stroke)" d="M61.0926 49.4232C60.3363 51.4987 58.0401 52.5679 55.9645 51.8117C53.8889 51.0555 52.8188 48.7595 53.575 46.6838C55.5838 41.1703 59.2366 32.9424 63.7315 26.1402C65.9719 22.7497 68.5445 19.5238 71.3732 17.1764C74.1591 14.8646 77.6959 12.9996 81.6916 13.4183C84.8205 13.7462 87.6332 14.9096 89.3291 17.4169C90.9661 19.8371 90.9351 22.6028 90.5305 24.7358C89.9113 27.9999 90 27.5001 89.3291 28.0001L80.2797 28.0001C81.5 27.0001 82.5814 26.5946 83.0324 24.2178C83.2023 23.3219 83.221 22.3793 82.7052 21.9059C82.1894 21.4325 81.5945 21.2102 80.2797 21.0725C79.3546 20.9755 78.5009 21.6572 76.4815 23.333C74.505 24.9732 72.4349 27.4791 70.4054 30.5504C66.3603 36.6721 62.9634 44.2882 61.0926 49.4232Z" fill="var(--fill-0, #5757FF)"/>
</g>
<defs>
<filter id="filter0_d_0_19" x="0" y="0" width="204" height="359" filterUnits="userSpaceOnUse" color-interpolation-filters="sRGB">
<feFlood flood-opacity="0" result="BackgroundImageFix"/>
<feColorMatrix in="SourceAlpha" type="matrix" values="0 0 0 0 0 0 0 0 0 0 0 0 0 0 0 0 0 0 127 0" result="hardAlpha"/>
<feOffset dy="4"/>
<feGaussianBlur stdDeviation="16"/>
<feComposite in2="hardAlpha" operator="out"/>
<feColorMatrix type="matrix" values="0 0 0 0 0 0 0 0 0 0 0 0 0 0 0 0 0 0 0.08 0"/>
<feBlend mode="normal" in2="BackgroundImageFix" result="effect1_dropShadow_0_19"/>
<feBlend mode="normal" in="SourceGraphic" in2="effect1_dropShadow_0_19" result="shape"/>
</filter>
</defs>
</svg>
