<svg preserveAspectRatio="none" width="100%" height="100%" overflow="visible" style="display: block;" viewBox="0 0 20.5091 20.806" fill="none" xmlns="http://www.w3.org/2000/svg">
<path id="Union" d="M10.3566 0.000149701C11.9719 0.0165364 13.269 1.33996 13.2531 2.95523L13.2091 7.40542L17.5109 7.3605C19.1495 7.34327 20.4922 8.65739 20.5089 10.296C20.5255 11.9346 19.21 13.2769 17.5714 13.2941L13.1505 13.34L13.1056 17.9113C13.0893 19.5262 11.7665 20.8222 10.1515 20.8058C8.53661 20.7892 7.24036 19.4666 7.25602 17.8517L7.29899 13.4015L2.99723 13.4474C1.35895 13.4644 0.0171493 12.1502 0.000158044 10.5119C-0.0165793 8.87333 1.29821 7.53026 2.93668 7.51285L7.35758 7.46597L7.40348 2.89566C7.4194 1.28052 8.74152 -0.0160248 10.3566 0.000149701Z" fill="var(--fill-0, #38354B)"/>
</svg>
