<svg preserveAspectRatio="none" width="100%" height="100%" overflow="visible" style="display: block;" viewBox="0 0 176.139 58.5427" fill="none" xmlns="http://www.w3.org/2000/svg">
<g id="Group 264">
<path id="Vector 81" d="M88.3782 41.2342C86.6187 40.9966 84.8349 40.7637 83.062 40.5418C60.5887 37.7076 36.4782 36.5227 14.1351 38.1074C13.8438 38.1226 13.5772 38.1325 13.3537 38.1365C13.1564 38.1442 12.9525 38.1475 12.7075 38.1386C12.5846 38.134 12.451 38.1262 12.2974 38.1114C12.2204 38.104 12.1384 38.0947 12.0495 38.0826C11.9242 38.0663 11.617 38.0205 11.2962 37.9339C10.6974 37.7058 9.35493 37.5664 7.95271 35.3786C7.31066 34.3556 7.07947 32.6346 7.36223 31.5581C7.61621 30.4417 8.0576 29.8104 8.37771 29.3847C8.70946 28.9614 8.97419 28.7247 9.19014 28.5401C9.29446 28.4519 9.40811 28.3644 9.47191 28.3176C9.50943 28.2901 9.54535 28.2645 9.5799 28.2405C9.71799 28.1444 9.83458 28.0715 9.93898 28.0094C10.7956 27.5303 10.8902 27.5585 11.1809 27.4454C11.4498 27.3543 11.6017 27.3197 11.7451 27.2884C11.8884 27.2576 12.0142 27.2356 12.1283 27.2183C12.5958 27.1464 12.7299 27.1941 13.1731 27.0665C15.5786 26.41 16.7829 25.6221 18.4758 25.1664C26.5123 23.0584 34.0069 21.3068 41.9372 19.6708C50.1006 18.0307 46.502 20.0011 49.3779 19.6759C55.0144 19.0818 50.0133 18.5739 52.1238 17.803C57.8792 16.7314 63.7247 15.812 69.5709 15.0772C74.5284 14.3261 76.1973 21.8359 71.39 23.2607C70.7913 23.4211 70.1744 23.5838 69.5404 23.7485C70.1546 23.5147 70.751 23.2836 71.3293 23.0556C75.8919 21.7033 74.308 14.5759 69.6029 15.2887C68.6746 15.5118 67.7364 15.7396 66.7939 15.97C67.734 15.8289 68.8133 15.694 69.6531 15.6216C73.961 14.9689 75.4112 21.4946 71.2338 22.7327C69.7485 23.0671 68.9786 23.1169 71.0945 22.2617C74.7099 21.1902 73.4548 15.5424 69.7264 16.1072C69.5173 16.1604 69.2815 16.2184 69.0169 16.2817C69.264 16.2694 69.507 16.2591 69.748 16.2499C73.3061 15.7108 74.5039 21.1008 71.0535 22.1234C70.3033 22.2542 69.5222 22.384 68.6993 22.5341C68.603 23.1393 63.7128 24.5239 63.3918 24.9351C63.032 25.367 65.733 24.5658 65.7274 24.5941C65.6394 25.069 54.3504 27.4185 53.5299 27.5539C51.3819 27.9655 53.0814 26.8466 51.2791 27.3383C48.1962 28.1747 50.5792 29.0076 45.9447 28.2562C44.406 29.2413 44.1936 28.9756 42.0611 29.4476C41.7808 29.5099 42.078 29.7921 41.9573 29.8304C38.8079 30.8506 41.1251 29.6354 41.1001 29.6058C40.6723 29.1039 37.2865 30.1849 36.552 30.3019C27.2923 31.8002 20.4974 32.8746 10.9137 35.1235C9.97825 35.347 8.22715 35.8351 6.4084 36.3803C5.95649 36.5162 5.51859 36.6504 5.04901 36.7974C4.82379 36.8681 4.61114 36.9361 4.41215 37.0009C4.17342 37.0777 3.95147 37.151 3.75075 37.219C3.39354 37.3398 2.90876 37.5117 2.64017 37.621C2.44217 37.6997 2.30078 37.7642 2.2218 37.8046C2.16572 37.8319 2.12825 37.861 2.1751 37.8251C2.18634 37.8159 2.20233 37.8023 2.22354 37.7815C2.24866 37.7525 2.25373 37.7647 2.35389 37.6203C2.43457 37.4974 2.55383 37.2426 2.51938 36.9125C2.48921 36.5811 2.29158 36.3117 2.15499 36.1973L1.51579 35.9061C1.79455 35.9459 2.05555 35.9798 2.26725 36.0109C4.22837 36.2737 3.14314 36.6082 4.18218 36.8809C5.93407 35.956 7.52923 35.9117 11.3414 36.664C12.779 35.947 12.5839 36.5468 15.3173 36.437C17.5902 36.3458 21.5621 35.49 24.0607 36.2727C21.1896 36.1774 21.4835 36.5471 18.2497 36.7342C17.1696 36.8198 5.97356 36.6126 6.78096 37.3585C7.20412 37.7785 10.9359 37.5112 11.0753 37.5826C11.907 38.0248 9.81234 38.5111 7.9721 38.2704C8.4373 38.1987 8.99075 38.1268 9.48707 38.0533C5.37207 37.3991 8.12945 39.5398 5.06071 37.624C4.67545 37.3852 4.84782 37.1662 4.21759 36.8977C4.07863 36.9866 4.85373 37.2692 4.1731 37.2738C3.48213 37.2815 2.22085 36.7244 1.99516 37.0803C1.64458 37.623 4.52978 37.6179 4.73897 37.6462C4.74144 37.643 4.7439 37.6398 4.74637 37.6365C6.63717 38.0281 2.65294 37.8578 2.4584 37.8674C1.5686 38.028 1.68823 38.2395 1.19478 38.3786C1.01757 38.3523 0.631584 38.1833 0.499802 38.0619C0.264864 37.8955 -0.0703425 37.3604 0.013018 36.8309C0.0435386 36.5787 0.133769 36.3796 0.221069 36.2354C0.264939 36.163 0.3114 36.0999 0.352363 36.0493C0.369528 36.0257 0.386706 36.0032 0.403915 35.9816C0.542359 35.8101 0.674608 35.6931 0.821398 35.5798C0.997089 35.4527 1.06584 35.3984 1.18363 35.3187C1.29769 35.2421 1.4331 35.1603 1.60286 35.0696C2.66047 34.4628 5.25374 33.8356 6.22943 33.5163C6.70679 33.3582 6.53932 33.3219 6.35973 33.2882C6.16511 33.2588 5.91527 33.2444 6.24963 33.1238C6.82977 32.9068 7.75599 32.8668 8.45334 32.6174C8.76274 32.5069 8.67423 32.227 8.82754 32.1766C10.5159 31.6249 9.53129 32.5071 11.0392 32.0851C12.0403 31.8038 15.2 30.4363 12.8648 30.8408C13.9794 30.5027 14.9809 30.2119 16.0949 29.8922C15.37 29.9794 14.6455 30.0963 13.9672 30.1581C16.0303 29.7933 16.8426 29.0804 18.1306 28.7296C19.3939 28.3853 20.7195 28.6855 22.0383 28.067C24.9005 26.7374 17.5259 28.8042 16.5548 28.9306C16.1852 28.9754 17.4514 28.1818 17.6698 28.1152C18.6322 27.8211 19.7917 27.8885 20.5402 27.6929C23.1341 27.0112 24.6467 26.1927 27.1169 25.511C35.54 23.1897 46.0042 20.4461 53.941 18.3355C56.9043 17.5491 58.8072 17.5689 60.1188 17.2095C63.2117 16.3552 63.4477 15.8397 66.1352 15.0639C66.9163 14.8359 67.8756 14.5712 68.7497 14.3354L70.9603 24.2805C67.3098 24.7428 63.0944 25.2192 60.3841 25.6554C58.0173 26.0337 55.9651 26.8678 55.3578 26.9984C46.8802 28.813 36.5867 31.1789 29.6312 32.9764C26.3564 33.8189 24.7206 33.7795 24.037 33.9786C21.1852 34.8265 22.0487 35.0057 19.7544 35.6289C18.4985 35.978 18.1799 35.6739 18.0029 35.7116C16.5649 36.0271 16.3802 36.6219 15.498 36.9649C15.3469 37.0232 15.0761 37.151 15.2479 37.0714C15.3135 37.0361 15.4303 36.9812 15.6946 36.7952C15.7417 36.7608 15.718 36.7804 15.8438 36.6838C15.9414 36.6075 16.0566 36.5125 16.1957 36.3805C16.4666 36.1084 16.876 35.7307 17.3109 34.8065C17.7557 33.9614 18.0221 32.0275 17.3139 30.5906C16.6603 29.1664 15.6627 28.5028 15.0715 28.1795C14.4488 27.8524 14.0576 27.7656 13.7732 27.699C13.6313 27.6684 13.5168 27.6499 13.4204 27.6367C13.3596 27.6284 13.3382 27.626 13.3013 27.6219C13.1674 27.6073 13.0744 27.6025 13.0044 27.5998C12.866 27.5953 12.8167 27.599 12.807 27.5988C18.989 27.1579 25.5385 27.0659 31.9762 27.0445C32.4842 27.042 32.4427 27.2679 32.7755 27.2528C34.2285 27.1849 33.5275 26.8346 35.0274 26.8027C38.1308 26.7395 41.3133 26.8377 44.5916 26.9727C44.9153 26.9862 45.0696 27.2797 45.8031 27.3024C46.5361 27.3256 47.11 27.0694 48.2909 27.1295C51.3368 27.2866 54.3131 27.7666 57.5399 27.99C58.0676 28.0262 58.7492 27.7212 59.5587 27.7808C62.0442 27.96 65.7654 28.5782 67.8806 28.7832C73.608 29.3276 78.9891 29.7984 84.3476 30.4286C85.5812 30.5737 86.8383 30.7303 88.0795 30.8956C89.638 31.1039 90.9604 31.6129 91.7656 31.7328C93.575 32.003 92.2502 31.508 94.0913 31.7676C109.108 33.9105 124.058 36.5748 139.124 39.3458C144.974 40.4243 152.153 41.5037 157.807 42.7721C157.868 42.7857 157.929 42.7993 157.989 42.8128C160.347 43.3489 160.722 43.8634 162.391 44.2375C165.446 44.944 166.024 44.483 169.427 45.3766C170.142 45.5772 170.812 45.8067 171.684 46.1871C172.128 46.3865 172.591 46.5951 173.263 47.0096C173.692 47.3099 174.028 47.408 174.958 48.4698C175.247 48.8068 176.233 50.1864 176.132 51.9675C176.098 52.8848 175.775 53.7771 175.378 54.4051C174.994 55.0044 174.724 55.2593 174.415 55.543C173.766 56.096 173.452 56.2215 173.135 56.3837C172.979 56.4579 172.832 56.5196 172.692 56.5736C172.555 56.6264 172.476 56.6517 172.373 56.6855C172.177 56.7486 171.991 56.7995 171.81 56.844C171.634 56.8867 171.517 56.9092 171.373 56.9372C170.775 57.0505 170.375 57.0883 169.93 57.135C169.086 57.2168 168.309 57.2667 167.617 57.3364C164.758 57.5983 163.574 58.1584 160.426 58.3207C159.793 58.3509 159.147 58.3622 158.4 58.3645C156.18 58.3695 153.646 58.27 151.554 58.3154C143.656 58.4841 135.868 58.5412 128.053 58.5427C124.157 58.5424 120.241 58.5253 116.36 58.4903C114.397 58.4724 112.448 58.4501 110.492 58.4214C109.558 58.4077 108.512 58.3906 107.562 58.372C107.036 58.3613 106.593 58.353 106.026 58.3362C105.943 58.3334 105.939 58.3337 105.791 58.3276C105.742 58.3254 105.695 58.3233 105.613 58.318C105.57 58.3151 105.521 58.3119 105.428 58.3029C105.311 58.2862 105.264 58.3038 104.715 58.186C104.561 58.148 104.369 58.1063 103.986 57.9609C103.601 57.7431 102.996 57.7797 101.645 56.2005C100.998 55.4232 100.275 53.6501 100.626 51.953C100.951 50.2614 101.859 49.3203 102.402 48.8415C103.554 47.9169 103.989 47.908 104.324 47.769C104.94 47.5875 105.086 47.5937 105.245 47.5663C105.388 47.548 105.465 47.542 105.528 47.5369C105.757 47.5205 105.798 47.5227 105.866 47.5203C105.926 47.519 105.971 47.5185 106.019 47.5181C106.039 47.5179 106.051 47.5179 106.067 47.5178C106.098 47.5176 106.129 47.5175 106.162 47.5174C106.228 47.5173 106.3 47.5174 106.381 47.5177C106.658 47.5187 106.847 47.5202 107.161 47.523C116.614 47.6332 126.016 47.8401 135.522 48.107C144.423 48.3539 154.34 48.4084 163.485 48.9139C164.352 48.9571 163.002 49.4791 165.744 49.3455C166.122 49.3268 166.399 49.2896 166.815 49.235C167.026 49.2072 167.16 49.1786 167.343 49.1435C167.431 49.1262 167.488 49.107 167.431 49.0994C167.435 49.0981 167.371 49.0897 167.055 49.155C166.876 49.2051 166.664 49.2126 166.003 49.5465C165.673 49.7409 165.15 49.9864 164.487 50.8972C163.773 51.7045 163.462 53.95 164.027 55.0094C165.041 57.0671 165.879 57.0711 166.219 57.3256C166.601 57.5003 166.775 57.5408 166.909 57.5808C167.161 57.6483 167.22 57.654 167.251 57.6637C166.649 57.7191 164.891 57.7284 163.104 57.6278C142.774 56.5662 120.954 54.8501 100.191 54.6482C88.9613 54.5569 77.5377 55.009 66.451 55.6958C46.5948 57.0042 27.1197 57.7118 10.1064 56.1219C9.81238 56.0994 9.63192 56.0087 9.65209 55.8389C9.66278 55.7935 9.6646 55.7536 9.7817 55.6647C9.88108 55.5834 10.0725 55.4362 10.1773 55.3007C10.2885 55.1583 10.2149 55.1595 10.0465 55.217C9.88087 55.2701 9.70794 55.2915 9.61646 55.2712C9.43457 55.2278 9.4621 55.1097 9.4624 55.0129C9.4701 54.9124 9.50165 54.8106 9.5645 54.7112C9.6078 54.6153 9.67564 54.5227 9.76278 54.4386C9.82948 54.3577 9.91257 54.2854 10.0105 54.226C10.7551 54.3822 11.4736 54.6106 12.2497 54.8224C13.0362 53.1526 12.9179 53.5561 16.5185 53.4065C18.7536 53.3235 16.9206 52.7827 18.0832 52.5026C19.6217 52.1243 26.744 50.9113 25.4426 52.0445C25.8923 51.8361 26.2637 51.6402 26.6947 51.4376C31.9086 50.9883 36.9799 50.4959 42.0584 49.9893C42.9371 49.9014 42.9838 49.5695 43.8927 49.4814C46.3067 49.2441 48.2611 49.3892 50.8065 49.2675C52.1544 49.2032 52.3303 48.8157 54.157 48.7798C55.9149 48.7472 55.9084 49.2615 58.3515 48.6265C56.7762 48.0411 63.5351 48.2731 66.2454 48.1823C66.2986 48.1804 66.3502 48.1784 66.4001 48.1763C66.7376 48.1598 69.8014 47.5072 71.3791 47.5511C73.0117 47.5893 75.4444 47.93 77.9417 47.7063C79.1012 47.6012 79.8169 47.1471 81.0843 47.1195C81.9624 47.1003 83.0239 47.5019 84.1529 47.5214C85.2828 47.5399 87.693 47.2234 88.1467 47.2218C89.7607 47.2116 87.9817 47.4807 89.079 47.5032C94.3741 47.6069 100.518 47.8561 105.737 47.78C106.379 47.7709 105.499 47.4193 105.584 47.4101C109.948 47.0988 107.613 47.4808 108.781 47.8052C109.918 48.1141 118.241 48.1834 118.325 47.6124C118.562 48.3432 120.43 47.8465 120.907 47.8404C122.777 47.8169 122.403 48.4315 124.217 48.2969C124.883 48.2482 123.605 47.7827 124.318 47.8185C126.067 47.9071 127.66 48.6416 130.001 48.7939C130.572 48.8313 130.771 48.5353 131.778 48.5828C132.762 48.6283 137.021 49.1645 135.083 48.4501C137.6 49.0608 138.173 48.8022 141.148 48.9406C141.923 48.9776 142.838 49.5048 144.477 49.4253C145.03 49.3983 145.037 48.9276 145.854 48.9603C147.711 49.0336 149.439 49.6006 151.858 49.7377C156.295 49.9945 161.037 49.8901 165.72 50.3355C166.955 50.4637 166.642 50.8187 168.225 51.0671C168.324 51.0839 168.418 51.0985 168.586 51.1416C168.674 51.166 168.776 51.1906 168.976 51.2774C169.161 51.4104 169.558 51.3768 170.141 52.421C170.257 52.6581 170.388 53.1267 170.342 53.5748C170.304 54.026 170.125 54.4168 169.947 54.672C169.574 55.1844 169.284 55.3078 169.103 55.4122C168.738 55.5884 168.613 55.5949 168.492 55.626C168.271 55.6706 168.155 55.6766 168.133 55.68C167.608 55.7481 165.498 56.1813 164.171 56.1492C163.381 56.1348 159.438 55.8421 158.638 55.8134C157.324 55.7706 157.061 56.2263 156.357 56.1328C154.261 55.8615 155.932 55.1996 153.427 56.1027C152.575 55.5857 151.147 55.6248 150.666 54.9918C149.785 55.6731 148.712 55.0014 147.039 55.2158C145.388 55.4304 144.003 56.7501 143.622 55.3101C142.841 55.4766 139.541 55.7375 138.983 55.7526C137.343 55.7951 138.224 55.4082 136.986 55.4472C136.768 55.4536 136.993 55.728 135.594 55.6844C134.679 55.6561 127.955 55.555 127.549 55.512C122.987 55.0278 130.039 55.275 131.049 54.9932C131.222 55.0726 131.393 55.1522 131.578 55.2308C133.597 55.3842 132.452 54.7564 131.54 54.6026C130.625 54.4487 128.904 54.7003 128.147 54.4891C127.761 54.3829 128.023 53.6507 129.158 53.754C127.939 53.5118 129.611 53.2939 129.13 53.0748C128.604 52.8349 123.063 52.691 123.044 53.0959C124.06 53.1234 125.37 53.1265 126.399 53.1565C127.753 53.8786 123.582 56.2306 119.782 55.2189C117.041 54.4871 121.611 53.9946 115.052 54.4915C116.074 54.5332 116.894 54.6099 117.819 54.6517C117.894 55.181 116.468 54.5812 115.673 54.7387C115.303 54.816 117.582 55.2203 115.595 55.3185C113.947 54.5414 112.597 55.2829 109.78 55.2571C110.599 55.1323 111.327 55.0075 112.159 54.8835C107.383 54.2748 118.451 54.2344 109.211 53.8113C110.276 53.7996 111.413 53.8206 112.554 53.7981C112.037 53.5142 112.881 52.7113 112.417 52.5334C111.097 52.0651 109.243 52.3131 107.662 52.2571C106.991 52.2339 107.412 52.0183 107.353 52.0164C107.262 52.013 107.186 52.0136 107.122 52.0172C106.736 52.0322 106.626 52.106 106.496 52.1772C106.45 52.213 106.306 52.2478 106.211 52.2754C106.158 52.2892 106.11 52.3011 106.056 52.3105C106.02 52.313 105.989 52.3155 105.961 52.3181C105.917 52.325 105.966 52.3093 105.791 52.3441C105.754 52.3604 105.716 52.3438 105.551 52.47C105.476 52.5292 105.314 52.7246 105.346 52.9919C105.383 53.2519 105.526 53.3573 105.586 53.4054C105.829 53.5502 105.805 53.4957 105.844 53.5134C105.89 53.5199 105.899 53.5191 105.917 53.5202C105.948 53.5214 105.98 53.5221 106.025 53.5234C107.062 53.5342 110.049 53.8964 110.515 53.869C111.768 53.7992 109.717 53.1287 109.829 53.0829C110.605 52.789 112.248 53.0709 112.164 52.6668C111.281 52.7178 109.897 52.7252 108.557 52.699C107.861 52.6853 107.225 52.6648 106.54 52.6323C106.474 52.6287 106.389 52.6245 106.294 52.6195C106.205 52.6148 106.135 52.6102 106.082 52.6058C106.032 52.604 105.938 52.593 106.009 52.6014C106.017 52.6034 106.028 52.605 106.055 52.6145C106.079 52.6362 106.139 52.6017 106.248 52.8029C106.3 52.9125 106.25 53.0816 106.195 53.1346C106.142 53.196 106.107 53.2099 106.083 53.2225C106.037 53.2435 106.022 53.2443 106.009 53.2478C105.968 53.2556 105.974 53.2531 105.973 53.254C105.976 53.2544 105.997 53.2544 106.026 53.2547C106.129 53.2561 106.15 53.259 106.235 53.2618C106.303 53.2645 106.424 53.2679 106.481 53.2711C106.54 53.2744 106.603 53.2779 106.669 53.2815C106.803 53.2888 106.952 53.2968 107.111 53.3055C109.003 53.4308 109.737 53.6348 107.106 53.867C106.919 53.8801 106.742 53.8938 106.585 53.9082C106.472 53.9227 106.176 53.9367 106.048 53.9539C106.014 53.9559 105.979 53.9601 106.027 53.9592C106.045 53.9576 106.057 53.9603 106.148 53.9437C106.207 53.9211 106.241 53.9613 106.543 53.7735C106.621 53.7165 106.731 53.6313 106.841 53.4478C106.951 53.2714 107.022 52.9545 106.957 52.6946C106.801 52.1594 106.539 52.0841 106.448 52.0143C106.24 51.9075 106.205 51.9195 106.159 51.9047C106.119 51.8962 106.101 51.8935 106.086 51.8912C106.057 51.8869 106.049 51.8859 106.042 51.8849C106.024 51.8816 106.058 51.8819 106.101 51.8815C106.123 51.8804 106.137 51.8789 106.159 51.8777C106.233 51.8725 106.386 51.869 106.491 51.8637C106.585 51.8582 106.695 51.8529 106.822 51.8478C106.953 51.8428 107.085 51.8376 107.194 51.8318C107.053 51.7881 106.843 51.7416 106.705 51.6958C106.557 51.6498 106.471 51.6046 106.316 51.5566C106.197 51.5097 106.098 51.4616 106.081 51.4172C106.119 51.4204 106.065 51.3858 106.368 51.4544C106.416 51.4681 106.477 51.4851 106.581 51.5313C106.684 51.5855 106.839 51.6343 107.102 51.9206C107.228 52.0654 107.386 52.3041 107.45 52.6387C107.519 52.9697 107.448 53.3562 107.318 53.6058C107.042 54.113 106.787 54.2023 106.657 54.2865C106.386 54.4205 106.319 54.4152 106.251 54.4358C106.19 54.4495 106.158 54.4546 106.133 54.4593C105.979 54.4857 106.026 54.489 106.027 54.5015C106.072 54.5228 106.099 54.545 106.119 54.5669C106.325 54.7431 106.399 54.919 106.211 55.0759C106.17 55.1152 106.123 55.1535 106.086 55.1905C106.066 55.1998 106.037 55.2094 106.041 55.2184C106.043 55.2228 106.049 55.2273 106.08 55.2302C106.096 55.2314 106.118 55.2326 106.163 55.2307C106.216 55.2256 106.255 55.2334 106.491 55.1822C106.555 55.1668 106.635 55.1471 106.766 55.0986C106.899 55.0432 107.08 54.9885 107.416 54.7241C107.581 54.587 107.798 54.3828 107.996 54.0182C108.194 53.6632 108.326 53.1045 108.246 52.5963C108.057 51.532 107.483 51.1775 107.257 51.0005C106.746 50.6794 106.633 50.707 106.513 50.6615C106.406 50.6339 106.353 50.6248 106.311 50.6166C106.16 50.5899 106.152 50.5892 106.129 50.5823C106.099 50.5717 106.122 50.5647 106.158 50.5576C106.21 50.5259 106.305 50.497 106.458 50.4711C106.581 50.4443 106.684 50.4187 106.846 50.3965C107.439 50.3065 108.257 50.2537 109.261 50.2544C112.594 50.2537 110.475 50.5763 112.175 50.9996C112.416 51.0543 116.909 51.3089 117.113 51.0311C116.92 51.6721 118.387 52.2615 117.388 52.9122C117.241 53.0079 115.411 52.9441 116.047 53.4867C116.375 53.7595 117.263 54.3552 117.116 54.6946C117.495 54.4623 117.912 54.2008 118.295 53.9581C121.052 53.924 121.444 54.1834 122.941 54.643C122.876 54.4575 121.498 53.6658 123.602 53.9251C123.708 53.9403 123.812 54.2203 124.879 54.3696C127.043 54.6685 127.519 54.7586 125.824 55.5608C130.34 55.1363 131.295 56.0566 135.922 55.8158C135.007 54.7585 133.382 55.013 129.154 55.1809C128.975 54.9292 128.888 54.6808 128.7 54.4264C134.326 55.0384 131.542 54.9587 134.735 54.4713C135.516 54.3526 139.675 54.5024 138.29 53.7886C137.964 53.6212 135.379 53.6281 135.677 53.3666C135.736 53.3175 138.874 53.2039 139.153 53.2719C142.626 54.1158 136.412 54.6992 145.988 54.3941C146.254 54.3847 146.348 54.0783 146.863 54.0343C147.832 53.952 147.836 54.3067 148.712 54.2211C149.577 54.1351 150.783 53.6512 152.078 54.0811C154.462 54.8636 148.853 55.3762 146.343 54.95C145.691 55.6231 152.843 55.8757 158.346 55.826C161.446 55.8033 164.026 55.6657 164.417 55.6111C169.327 54.9409 161.143 55.6235 160.737 55.298C160.558 55.1787 160.598 53.6215 158.578 54.6816C157.977 54.9962 160.53 55.3316 159.02 55.5332C158.724 55.5723 158.502 55.5856 158.341 55.5816C157.716 55.564 158.071 55.2533 157.985 55.2293C157.624 55.1275 155.991 55.3257 155.799 55.2627C152.586 54.3139 152.844 52.8238 157.131 54.9648C158.978 54.4325 154.695 53.7119 157.005 53.3333C157.464 53.2578 157.894 53.2121 158.291 53.1886C160.411 53.0671 161.853 53.5163 162.178 53.5314C166.4 53.7201 161.489 52.9478 166.632 52.9653C169.525 52.9009 162.387 54.0467 168.957 53.3568C169.617 53.2615 170.239 53.1362 170.684 52.9898C170.949 52.9026 171.137 52.8276 171.364 52.6931C171.542 52.5703 171.866 52.3989 171.952 51.8925C171.989 51.4294 171.734 51.2136 171.657 51.1384C171.55 51.043 171.442 50.9828 171.391 50.9682C171.271 50.9252 171.206 50.9385 171.18 50.9808C171.135 51.0721 171.196 51.2553 171.209 51.4816C171.208 51.7048 171.019 51.771 170.847 51.8749C170.815 51.9154 170.76 51.9088 170.591 51.8557C170.417 51.7992 170.198 51.7454 170.081 51.7319C169.973 51.7239 169.956 51.7425 170.185 51.8661C170.241 51.8974 170.308 51.9339 170.372 51.9724C170.442 52.0133 170.529 52.071 170.562 52.0992C170.58 52.1112 170.578 52.1265 170.53 52.0451C170.505 51.9989 170.47 51.9129 170.464 51.7979C170.456 51.6774 170.498 51.5356 170.548 51.4558C170.749 51.2156 170.608 51.401 170.446 51.4401C170.444 51.6688 170.328 52.0013 170.129 52.2493C169.097 52.3299 167.403 51.4001 166.887 51.4057C164.341 51.4177 164.513 51.9419 162.95 51.3605C164.063 52.0303 162.316 51.6746 161.629 51.8471C159.469 52.4164 161.824 52.5739 158.269 52.1718C157.893 52.1265 157.441 52.074 156.888 52.0132C157.382 52.2297 157.834 52.4433 158.279 52.6568C158.515 52.7618 158.748 52.8668 158.984 52.972C158.755 52.9813 158.522 52.9905 158.287 52.9994C157.864 53.0161 157.431 53.0322 156.988 53.0476C155.988 52.3272 152.437 52.4659 155.643 51.678C151.812 51.5192 150.231 51.681 149.413 52.2632C149.255 52.374 148.679 52.421 147.991 52.4342C148.122 52.5956 148.29 53.0954 148.182 53.1572C147.233 53.701 145.741 52.7713 146.248 52.4144C145.768 52.3983 145.395 52.3788 145.263 52.3703C144.427 52.3161 146.065 51.9922 145.388 51.8828C145.171 51.8478 142.79 51.9181 142.75 51.7867C142.461 50.9456 146.366 51.5627 138.536 51.0562C138.346 51.82 141.979 51.6613 141.045 52.4698C140.044 53.3394 137.997 52.1637 137.547 53.2304C137.382 53.054 137.309 52.9071 137.166 52.7064C133.992 53.1571 133.96 52.2647 132.99 52.0623C131.111 51.6692 122.475 51.6483 130.223 52.4872C129.096 52.5553 127.919 52.5806 126.803 52.6381C126.562 51.0388 127.24 51.6852 121.802 51.3811C120.597 51.3132 120.233 50.6068 119.036 51.4255C119.211 50.6105 115.676 51.0575 115.328 50.9526C113.212 50.2784 121.116 49.4878 122.098 50.9413C123.424 50.3933 123.417 51.1375 124.902 51.0543C127.044 50.9333 127.342 50.7915 129.882 51.3619C132.395 50.6124 120.084 50.9302 127.552 49.9748C131.392 49.4665 144.86 49.2397 158.196 48.7063C161.021 48.5823 163.824 48.4417 166.376 48.193C167.036 48.1276 167.638 48.0567 168.184 47.9727C168.462 47.9299 168.711 47.885 168.911 47.8406C169.093 47.8034 169.287 47.7349 169.128 47.7813C169.092 47.7933 169.008 47.8221 168.858 47.8956C168.701 47.9823 168.544 48.0331 168.08 48.42C167.867 48.6064 167.62 48.8542 167.366 49.2203C167.037 49.6912 166.718 50.3861 166.616 51.1648C166.391 52.7588 167.121 54.0064 167.434 54.4075C168.124 55.2634 168.295 55.2358 168.405 55.3372C168.492 55.3928 168.482 55.3854 168.439 55.3691C168.236 55.2854 167.733 55.1148 167.222 54.967C162.917 53.7831 158.557 53.0032 155.778 52.4435C155.162 52.3241 154.596 52.2151 154.102 52.1207C136.178 48.7814 126.626 47.3009 110.438 44.5764C108.84 44.2925 96.7553 42.5054 99.3956 42.0109C99.7737 41.9356 105.033 42.3985 100.672 41.0206C101.517 41.568 98.8527 41.4359 98.6257 41.447C93.4292 41.6837 96.3248 42.3297 88.3782 41.2342ZM65.5285 30.6519C76.0671 31.8112 68.3709 30.511 70.6908 29.3687C69.3609 29.2363 67.9543 29.1035 66.6203 28.984C66.9661 29.099 67.3088 29.2139 67.6576 29.3301C67.6591 29.3302 67.6606 29.3304 67.6622 29.3305C66.9487 29.7691 66.253 30.211 65.5285 30.6519ZM10.8879 30.4496C11.2568 30.1731 11.6132 29.9001 11.9948 29.6254C13.3762 29.3372 14.722 29.0618 16.1171 28.7782C15.9899 28.9334 15.8562 29.0916 15.7197 29.2492C14.0948 29.6413 12.507 30.0278 10.8879 30.4496ZM144.867 55.1476C142.886 54.6544 143.072 55.5367 140.444 55.1299C140.763 55.7812 141.118 56.4183 141.458 57.0629C143.457 56.9694 143.917 56.7225 146.086 56.8781C145.83 56.6695 145.57 56.4596 145.325 56.2496C144.966 56.2949 144.582 56.3462 144.231 56.3861C143.679 55.8019 147.13 55.7107 144.873 55.1463C144.871 55.1467 144.869 55.1472 144.867 55.1476ZM124.631 55.3003C123.553 55.2055 119.373 54.8381 118.784 55.0992C116.826 55.9911 128.698 55.5491 119.952 56.2599C119.991 56.3886 119.949 56.5137 119.947 56.6406C121.529 56.7049 123.126 56.7616 124.74 56.8141C124.66 56.3078 124.722 55.8093 124.631 55.3003ZM103.545 35.3293C105.15 35.6396 112.911 36.4494 110.495 35.476C109.783 35.1883 106.218 35.4595 104.915 35.2222C104.073 35.068 105.09 34.766 103.395 34.6731C103.439 34.8822 103.451 35.1084 103.55 35.3287C103.549 35.3289 103.547 35.3291 103.545 35.3293ZM100.121 37.4781C101.798 37.6493 103.503 37.8077 105.194 37.9851C104.049 37.2818 101.589 37.2407 101.556 36.5005C102.024 36.5159 102.487 36.5312 102.955 36.5475C103.284 36.759 103.604 36.9695 103.925 37.1802C105.425 37.0137 104.587 36.6823 107.249 37.2176C105.8 35.8773 105.585 35.2378 100.818 35.6373C101.777 35.1799 101.244 33.1294 98.4875 34.1238C97.9728 34.3078 99.9382 34.7748 99.956 34.8196C100.187 35.3704 99.0324 35.5268 99.29 36.0531C99.4045 36.2905 100.623 36.4705 100.758 36.7976C100.821 36.9564 99.6006 37.1985 100.121 37.4781ZM97.1735 34.4218C97.7357 34.192 96.0754 33.2053 94.5117 33.1319C92.0845 33.019 95.7681 34.248 97.1735 34.4218ZM10.879 30.4525C10.882 30.4515 10.8849 30.4506 10.8879 30.4496C10.8866 30.4506 10.8852 30.4516 10.8839 30.4527C10.8822 30.4526 10.8806 30.4526 10.879 30.4525ZM130.099 55.7084C128.857 55.9616 126.989 55.906 127.128 56.3252C126.532 56.2376 125.897 56.1506 125.295 56.0624C125.3 56.1881 125.31 56.3142 125.314 56.4386C127.161 56.5354 128.97 56.6301 130.804 56.7237C130.576 56.3857 130.366 56.0466 130.099 55.7084ZM110.156 55.1703C107.84 55.0866 109.765 55.6899 109.254 55.9554C108.792 56.2227 106.658 55.9552 106.941 56.3545C108.269 56.3996 109.724 56.4404 111.086 56.4773C110.716 56.0425 110.47 55.6018 110.152 55.1702C110.153 55.1702 110.155 55.1702 110.156 55.1703ZM22.1886 29.2089C23.7693 29.2609 23.1464 29.7124 26.2342 29.0929C26.2319 29.0929 26.2296 29.093 26.2274 29.0931C23.2605 28.8322 19.4052 28.7151 16.1995 29.276C18.1933 29.6048 19.6991 29.1378 22.1886 29.2089ZM150.333 56.4092C150.99 56.0619 147.911 55.7919 147.243 56.1119C146.144 56.6325 149.344 56.9393 150.333 56.4092ZM64.1837 20.1675C66.3496 18.7311 61.697 18.2862 57.1395 19.6787C56.7464 19.7968 59.8062 19.5674 58.9556 19.9364C58.8695 19.9722 57.2204 20.2557 56.8422 20.4788C56.4635 20.7015 56.9548 20.956 56.3161 21.225C55.1968 21.6939 52.4707 21.762 51.6675 22.2641C51.5614 22.3302 53.2818 22.4496 53.3882 22.4469C55.1167 22.3833 56.6173 21.4861 56.8772 21.4325C58.2082 21.158 58.0936 21.6589 58.4515 21.7036C59.1254 21.7879 60.2084 21.3781 60.2903 21.3791C62.3895 21.4142 57.7405 22.1446 57.1507 22.437C55.558 23.2109 57.189 23.3166 53.2249 24.3682C52.8486 24.4679 48.2902 25.3663 54.1337 24.719C43.0944 28.089 59.9041 24.1617 61.7142 23.6689C62.5432 23.4066 61.1786 23.1969 61.6581 22.9062C62.7522 22.2399 64.7559 21.8134 64.4654 21.2051C63.8473 19.9241 61.3438 21.267 59.4795 21.3806C59.6174 21.0537 59.6383 20.7558 59.942 20.4054C59.4648 20.8839 64.0283 20.2675 64.1842 20.1702C64.184 20.1693 64.1839 20.1684 64.1837 20.1675ZM35.8854 27.6179C33.2734 27.8222 33.6451 28.6191 31.2328 28.7098C29.3874 29.9684 33.3704 28.9199 33.858 28.8505C36.0204 28.5265 36.1866 29.3517 38.2948 28.5889C37.4247 28.2817 36.7206 27.9315 35.8854 27.6179ZM57.9654 23.2354C56.3494 23.9862 59.3851 23.4027 59.5236 23.4645C61.0246 24.0722 51.9103 25.6462 57.9654 23.2354ZM113.279 38.6355C114.147 38.808 113.661 38.3047 114.45 38.3098C115.239 38.3131 117.814 39.1061 117.79 38.8391C117.768 38.5702 113.049 37.0978 117.919 37.7635C117.78 37.5917 117.853 37.4934 117.796 37.3498C116.465 37.1224 115.121 36.8927 113.789 36.6698C114.453 37.2054 115.129 37.766 115.764 38.2838C114.962 38.4901 114.612 37.997 114.573 37.9904C114.573 37.9909 114.573 37.9913 114.572 37.9918C113.172 37.7945 111.333 38.2506 113.279 38.6355ZM44.1776 29.8126C43.8827 30.85 46.0157 29.7411 46.8736 29.643C47.7472 29.5434 48.9079 29.9773 48.4843 29.5102C47.0926 29.1412 44.2146 29.6947 44.1775 29.814C44.1776 29.8135 44.1776 29.8131 44.1776 29.8126ZM22.2667 31.1032C20.2379 31.9339 20.6496 32.0914 18.0357 32.5413C18.2042 32.7546 18.375 32.9731 18.544 33.1825C20.5456 32.5989 20.2019 31.9339 22.6268 31.5659C23.0253 31.5076 22.3432 32.2998 24.049 31.6406C23.4615 31.4754 22.8402 31.2853 22.2667 31.1032ZM13.3952 30.2843C13.2351 30.296 13.0862 30.3151 12.9492 30.34C12.9069 30.3499 12.8878 30.3582 12.9056 30.3687C12.9147 30.374 12.9332 30.3799 12.9653 30.3883C13.0071 30.4012 12.9977 30.3904 13.2642 30.4593C13.4706 30.5553 14.0935 30.5915 14.7001 31.6644C14.9765 32.1733 14.9867 32.9647 14.8283 33.3813C14.6802 33.8244 14.4936 34.0399 14.369 34.1827C14.2401 34.3228 14.1504 34.3896 14.0858 34.436C14.029 34.4748 14.027 34.4704 14.0032 34.4825C13.965 34.4993 13.9401 34.505 13.9239 34.5051C13.8592 34.4646 14.0065 34.3044 14.1275 34.1633C14.3427 33.8885 14.5233 33.6092 14.5547 33.4101C14.5884 33.2111 14.4287 33.1066 14.1045 33.1541C14.0251 33.1655 13.9378 33.1859 13.8484 33.2145C13.747 33.2478 13.6107 33.3035 13.512 33.3549C13.4493 33.3818 13.2084 33.5435 13.3649 33.4595C13.4077 33.419 13.5048 33.3652 13.6251 33.1056C13.681 32.9765 13.7323 32.7723 13.6989 32.5388C13.665 32.2989 13.5568 32.1075 13.442 31.9763C13.2032 31.7189 13.0389 31.6912 12.9617 31.6597C12.8778 31.6347 12.8674 31.6345 12.8641 31.6297C12.8454 31.6142 12.9054 31.6025 13.0134 31.578C13.1803 31.5389 13.3696 31.492 13.5868 31.4365C14.2374 31.2588 15.2543 30.1397 13.3952 30.2843ZM90.4574 35.215C94.6626 35.8613 89.9199 34.8631 88.865 34.4062C98.7199 35.5209 87.7513 34.3276 86.8984 33.1749C85.6564 33.3104 83.3144 33.6961 85.7945 34.2007C86.8316 34.4128 86.4864 34.0539 86.5503 34.0635C88.4547 34.394 88.1586 34.8671 90.4574 35.215ZM40.2527 26.5432C40.1 26.5941 40.4228 26.8822 39.9432 27.0649C39.4647 27.2467 38.2911 27.2664 38.2246 27.5048C38.1725 27.7399 40.442 27.386 41.1094 27.0724C41.765 26.759 41.6428 26.0856 40.2527 26.5432ZM24.2358 29.6113C22.2702 30.4036 25.9621 30.7566 26.3789 30.645C30.2893 29.5547 24.2395 30.0277 24.2358 29.6113ZM80.3847 36.1353C85.5316 36.1045 81.9747 34.4956 78.8514 33.44C78.4112 33.5296 77.9626 33.6191 77.5331 33.7098C79.5459 33.0891 83.0157 32.6297 75.4376 32.5234C79.5144 33.1747 76.076 33.0231 76.0317 33.0669C75.4158 34.5603 81.5506 34.5402 80.3802 36.1347C80.3817 36.1349 80.3832 36.1351 80.3847 36.1353ZM47.0579 25.4111C49.2324 24.9276 54.8351 23.5198 52.0598 23.3888C50.384 24.0543 48.7216 24.7278 47.0579 25.4111ZM162.937 50.2125C164.605 51.0061 166.24 51.3758 168.285 51.9813C166.585 50.8792 167.847 51.1822 168.507 51.2444C169.551 51.3534 167.189 50.638 167.187 50.6156C167.376 50.1211 168.935 50.4236 165.422 49.5235C166.314 49.5536 167.263 49.6071 168.167 49.6781C165.489 48.8979 164.921 48.4368 163.298 47.6104C164.731 49.0216 162.683 47.8597 160.571 47.9321C159.52 47.9681 162.087 49.8055 162.944 50.214C162.942 50.2135 162.939 50.213 162.937 50.2125ZM85.6027 37.0032C86.1519 36.8849 86.6553 36.694 87.1903 36.5479C87.7431 36.6009 88.3037 36.6583 88.8515 36.7121C88.8968 36.8865 88.9298 37.0671 88.9873 37.2367C89.7043 37.3836 89.4541 37.1152 89.6725 37.1231C89.6723 37.124 89.6722 37.1249 89.6721 37.1258C92.8023 37.2471 94.0668 37.4653 96.4078 38.328C96.482 37.8225 96.5561 37.317 96.6302 36.8114C96.0792 36.7799 95.5259 36.7473 94.9716 36.7151C94.6423 36.9449 94.3126 37.175 93.9849 37.4053C93.3791 37.1655 92.7764 36.928 92.1658 36.6891C91.6463 36.7156 91.029 36.7343 90.5798 36.7691C88.2534 35.0045 93.8473 36.7619 93.9746 36.1864C94.0681 35.8097 88.3001 35.0216 87.4309 35.1779C87.3077 35.2006 88.4082 36.4191 86.3789 35.591C86.0725 35.4643 86.2265 33.2094 83.8085 34.6695C83.7818 34.6853 83.7547 34.7016 83.7273 34.7184C83.6173 34.7854 83.6302 34.9765 83.738 35.2242C83.9779 35.7903 84.7035 36.6519 85.6027 37.0032ZM106.328 40.7703C103.336 38.8003 114.981 42.2447 110.043 40.2228C111.615 39.7923 111.344 39.7569 109.962 38.9258C109.841 38.8516 110.891 38.833 110.808 38.7958C109.479 38.2449 107.787 38.1535 107.87 37.5573C107.491 37.5296 107.134 37.502 106.755 37.4747C108.223 38.281 105.69 38.2655 104.658 38.5898C104.189 38.736 105.181 38.9584 104.784 39.0886C104.638 39.1355 103.261 38.7819 103.174 38.9696C102.987 39.3953 103.77 40.1295 105.206 40.6897C105.206 40.6902 105.206 40.6906 105.206 40.691C105.583 40.7202 105.95 40.7419 106.328 40.7703ZM37.2247 33.0053C36.6752 32.1914 34.4401 31.9429 38.7307 31.5719C38.5218 31.4096 38.3076 31.2489 38.1005 31.0871C37.3674 31.0957 36.6584 31.1069 35.9377 31.1194C33.7247 33.5081 29.7274 30.8691 32.2918 32.5323C32.5675 32.7129 34.2948 32.4908 32.5981 33.0088C32.6004 33.0092 32.6026 33.0096 32.6049 33.0101C34.96 32.8343 35.2688 32.548 37.2247 33.0053ZM53.0004 32.8986C58.5333 31.4651 45.5239 31.5861 47.6772 32.1588C47.8641 32.1958 53.4587 32.0848 53.0004 32.8986ZM14.8889 29.5712C12.5146 30.3128 12.5628 31.381 12.9872 31.5461C13.3339 31.7439 14.9032 30.8454 15.0871 30.8481C15.8178 30.7923 14.4279 31.3662 15.3698 31.3082C15.6978 31.2611 19.8372 30.3736 20.0456 30.2852C20.9987 29.7851 19.3102 29.4722 19.5693 29.3081C20.4364 28.7621 21.8975 28.7699 22.0613 28.3053C22.4467 27.3018 20.1978 28.864 19.8057 28.9944C18.5359 29.3998 18.5516 28.8896 17.5549 29.0813C16.5894 29.2668 16.0095 29.6183 15.1693 29.8505C14.8788 29.9319 15.0136 29.5342 14.8889 29.5712ZM17.4356 32.57C14.9216 33.4297 21.1627 33.797 21.8789 33.6129C24.0139 33.0178 18.6285 32.1465 17.4356 32.57ZM98.5888 37.3345C96.2128 37.4928 101.515 38.6974 103.082 38.7374C102.83 38.4838 99.4078 37.2782 98.5888 37.3345ZM78.9751 35.9655C81.144 36.0632 78.412 34.5861 76.6579 34.4108C75.5421 35.0424 76.5283 35.0003 77.6784 35.1622C78.8329 35.326 77.2972 35.8945 78.9751 35.9655ZM40.8859 23.6627C40.4137 23.7452 33.3053 26.056 37.5296 25.3258C37.8651 25.2601 42.9077 23.9963 43.2872 23.8006C44.0173 23.3994 42.0482 23.4321 40.8859 23.6627ZM68.6818 35.9962C69.8705 35.4551 70.9612 35.5713 70.0083 34.7131C70.0068 34.7129 70.0053 34.7128 70.0038 34.7126C72.8727 34.7574 72.8541 36.3305 73.4591 36.3585C75.6082 36.4683 73.6965 35.1491 75.0844 34.9311C71.9217 34.9399 72.8913 34.29 70.5063 34.0058C69.9834 33.943 67.7812 34.1867 67.4463 34.4375C67.1093 34.6869 68.1258 35.6166 68.6818 35.9962ZM51.1738 21.2768C48.6412 21.5419 46.6166 23.0483 50.0619 22.4962C51.7532 22.2298 52.7089 21.1195 51.1738 21.2768ZM121.034 51.5568C121.413 51.8371 121.808 52.1164 122.226 52.3944C121.27 52.4503 120.387 52.5078 119.428 52.5639C120.183 52.486 120.891 52.4086 121.641 52.3313C119.901 52.2147 119.127 51.7031 121.03 51.5567C121.031 51.5567 121.033 51.5568 121.034 51.5568ZM152.88 55.2935C153.682 55.5656 155.187 54.7535 155.001 54.688C153.576 54.2004 151.773 54.9163 152.88 55.2935ZM101.618 40.3186C104.459 40.8723 102.698 39.2463 100.957 38.8887C101.99 39.3048 100.007 40.0066 101.618 40.3186ZM131.049 54.9932C130.788 54.875 130.525 54.7567 130.234 54.6378C131.154 54.8093 131.311 54.9188 131.049 54.9932ZM39.4594 22.7768C39.0053 22.7729 35.7726 23.4414 35.3851 23.667C34.5509 24.1401 37.2044 24.2657 38.6235 23.706C38.777 23.645 39.914 22.7777 39.4526 22.7784C39.4548 22.7779 39.4571 22.7774 39.4594 22.7768ZM117.12 50.9949C117.125 51.0078 117.122 51.02 117.113 51.0311C117.116 51.0192 117.116 51.0068 117.12 50.9949ZM118.301 47.5505C118.319 47.5718 118.328 47.5927 118.325 47.6124C118.319 47.5927 118.305 47.5719 118.301 47.5505ZM16.6247 27.4817C15.199 26.5696 12.848 28.0452 15.0506 27.9996C15.1465 28.002 16.3903 27.5473 16.6247 27.4817Z" fill="var(--stroke-0, #E19AFF)"/>
<g id="&#233;&#170;&#168;&#230;&#138;&#152;&#231;&#156;&#137;">
<g id="Union">
<path fill-rule="evenodd" clip-rule="evenodd" d="M151.741 0C152.608 0 153.325 0.314943 153.892 0.944979C154.492 1.54013 154.792 2.2934 154.792 3.20364V13.4432C154.792 14.3534 154.492 15.1241 153.892 15.7543C153.325 16.3493 152.608 16.6469 151.741 16.6469H122.142L120.592 43.0084C120.525 43.9186 120.175 44.6719 119.542 45.2671C118.909 45.8621 118.159 46.1238 117.292 46.0539L115.642 45.9491C114.775 45.8791 114.075 45.5111 113.542 44.846C113.009 44.2158 112.775 43.4461 112.842 42.5359L115.292 2.9407C115.325 2.06558 115.625 1.36531 116.191 0.840201C116.758 0.280057 117.459 0 118.292 0H151.741ZM122.542 10.5549H131.392V6.09195H122.792L122.542 10.5549ZM138.592 10.5549H147.392V6.09195H138.592V10.5549Z" fill="var(--fill-0, black)"/>
<path fill-rule="evenodd" clip-rule="evenodd" d="M47.7305 0.971668C48.5971 0.971668 49.3142 1.27887 49.8809 1.89292C50.4808 2.47279 50.7802 3.20644 50.7803 4.09326V14.7885H53.1807C54.0473 14.7885 54.7644 15.0957 55.3311 15.7098C55.9308 16.2897 56.2305 17.0233 56.2305 17.9101V22.976C56.2305 23.8629 55.931 24.6137 55.3311 25.2278C54.7644 25.8077 54.0473 26.0976 53.1807 26.0976H51.7803C51.2805 26.0976 50.814 26.0121 50.3809 25.8416V42.5745C50.3809 43.4614 50.0803 44.1949 49.4805 44.7748C48.9139 45.3888 48.1975 45.6959 47.3311 45.6961H38.8311C37.9646 45.6961 37.2308 45.4578 36.6309 44.9804C36.0642 44.5369 35.7803 43.9734 35.7803 43.2911C35.7803 42.6089 36.0643 42.029 36.6309 41.5514C37.2308 41.108 37.9645 40.8862 38.8311 40.8862H42.6807V27.7355H26.2305V29.3724H37.3311C38.1975 29.3725 38.881 29.5607 39.3809 29.9359C39.8805 30.2769 40.1308 30.7371 40.1309 31.3168C40.1309 31.8967 39.8808 32.3748 39.3809 32.75C38.881 33.0911 38.1975 33.262 37.3311 33.2621H26.2305V34.9504H37.3311C38.1975 34.9505 38.881 35.1376 39.3809 35.5128C39.8808 35.8539 40.1308 36.3148 40.1309 36.8947C40.1309 37.4747 39.8809 37.9527 39.3809 38.328C38.881 38.6691 38.1975 38.839 37.3311 38.839H26.2305V42.8819C26.2305 43.7687 25.9309 44.5023 25.3311 45.0822C24.7644 45.6963 24.0473 46.0035 23.1807 46.0035H21.5811C20.7144 46.0035 19.9808 45.6962 19.3809 45.0822C18.8142 44.5023 18.5303 43.7689 18.5303 42.8819V25.9948C18.1971 26.063 17.9469 26.0976 17.7803 26.0976H16.3809C15.5143 26.0976 14.7806 25.8076 14.1807 25.2278C13.614 24.6137 13.3301 23.863 13.3301 22.976V17.9101C13.3301 17.0231 13.614 16.2897 14.1807 15.7098C14.7807 15.0957 15.5142 14.7885 16.3809 14.7885H18.6807V4.09326C18.6807 3.20644 18.9637 2.47279 19.5303 1.89292C20.1303 1.27889 20.8639 0.971691 21.7305 0.971668H47.7305ZM20.8311 22.72C21.1641 22.6519 21.4145 22.6182 21.5811 22.6182H47.3311C47.8641 22.6183 48.3306 22.7201 48.7305 22.9246V21.0317H20.8311V22.72ZM26.2803 14.7885H32.7305V12.6396H26.2803V14.7885ZM26.2803 8.74995H37.2803C38.1469 8.74995 38.864 9.05717 39.4307 9.67121C40.0306 10.2511 40.331 10.9847 40.3311 11.8715V14.2765C40.3311 14.5153 40.3136 14.6862 40.2803 14.7885H43.1807V6.90843H26.2803V8.74995Z" fill="var(--fill-0, black)"/>
<path d="M102.03 0.204614C102.964 0.102271 103.714 0.290438 104.28 0.768043C104.847 1.21153 105.214 1.91042 105.381 2.86558L105.48 3.63362C105.514 3.80411 105.53 4.04265 105.53 4.34928C105.53 5.95254 104.647 6.85687 102.881 7.06164L88.9307 8.34072L88.5303 15.0445H103.83C104.736 15.0445 105.438 15.2845 105.934 15.7641L106.127 15.9618C106.596 16.4696 106.83 17.1871 106.83 18.1147V18.9332C106.83 19.9225 106.564 20.6905 106.03 21.2363C105.53 21.748 104.797 22.0044 103.83 22.0044H101.23L101.08 42.6259C101.08 43.5534 100.846 44.271 100.377 44.7788L100.184 44.9765C99.6875 45.4562 98.9864 45.6961 98.0801 45.6961H96.6807C95.714 45.6961 94.964 45.4234 94.4307 44.8776C93.9307 44.3659 93.6807 43.6152 93.6807 42.6259L93.8301 22.0044H88.1309L86.9805 42.6259C86.9138 43.6151 86.5969 44.3486 86.0303 44.8262C85.4969 45.3379 84.7634 45.577 83.8301 45.5428L81.9307 45.441C79.964 45.3387 79.0309 44.2635 79.1309 42.2166L81.2803 5.06592C81.3803 3.18967 82.3474 2.14901 84.1807 1.94432L102.03 0.204614Z" fill="var(--fill-0, black)"/>
<path fill-rule="evenodd" clip-rule="evenodd" d="M150.491 18.432C151.358 18.432 152.075 18.747 152.642 19.377C153.242 19.9722 153.542 20.7254 153.542 21.6357V42.3788C153.542 43.2888 153.242 44.0414 152.642 44.6364C152.075 45.2666 151.358 45.5814 150.491 45.5814H126.792C125.925 45.5814 125.192 45.2665 124.592 44.6364C124.025 44.0414 123.741 43.2888 123.741 42.3788V21.6357C123.741 20.7254 124.025 19.9722 124.592 19.377C125.192 18.747 125.925 18.432 126.792 18.432H150.491ZM131.441 26.6769H142.191C143.025 26.6769 143.642 26.869 144.042 27.2541C144.442 27.6042 144.642 28.0948 144.642 28.725C144.642 29.3551 144.442 29.8632 144.042 30.2482C143.642 30.5983 143.025 30.7731 142.191 30.7731H131.441V33.0308H142.191C143.025 33.0308 143.642 33.2239 144.042 33.609C144.442 33.9591 144.642 34.449 144.642 35.0789C144.642 35.709 144.442 36.217 144.042 36.6021C143.642 36.9522 143.025 37.127 142.191 37.127H131.441V39.4904H145.842V24.4192H131.441V26.6769Z" fill="var(--fill-0, black)"/>
<path d="M71.8809 0C72.8471 7.32124e-05 73.5802 0.27293 74.0801 0.818455C74.6134 1.33015 74.8808 2.08093 74.8809 3.07019V8.59674H76.0801C76.9862 8.59674 77.6875 8.83679 78.1836 9.31635L78.377 9.51404C78.8459 10.0217 79.08 10.7393 79.0801 11.6669V12.3836C79.0801 13.3729 78.8301 14.1409 78.3301 14.6867C77.8634 15.1982 77.1636 15.4538 76.2305 15.4538H74.8809V22.72C75.0474 22.686 75.2639 22.6696 75.5303 22.6696C76.2969 22.6696 76.9142 22.9077 77.3809 23.3853C77.8475 23.8288 78.1305 24.4777 78.2305 25.3306L78.2803 25.893C78.3136 26.0294 78.3301 26.234 78.3301 26.5069C78.3301 28.1443 77.4638 29.0995 75.7305 29.3724L74.8809 29.5266V42.4213C74.8809 43.4106 74.6134 44.1613 74.0801 44.673C73.5802 45.2187 72.8473 45.4914 71.8809 45.4914H66.0303C65.0637 45.4914 64.3136 45.2188 63.7803 44.673C63.2804 44.1613 63.0303 43.4105 63.0303 42.4213V42.1148C63.0303 41.1256 63.2135 40.3575 63.5801 39.8117C63.9801 39.3 64.5305 39.0446 65.2305 39.0446H66.8809V30.8057L65.8301 30.9589C65.6635 30.993 65.4305 31.0103 65.1309 31.0103C64.3642 31.0103 63.7469 30.7886 63.2803 30.3451C62.8137 29.9017 62.5142 29.2534 62.3809 28.4008L62.2803 27.7859C62.247 27.6155 62.2305 27.3769 62.2305 27.0703C62.2305 25.4669 63.0804 24.5281 64.7803 24.2551L66.8809 23.9487V15.4538H65.2803C64.3138 15.4537 63.5636 15.1983 63.0303 14.6867C62.5303 14.1409 62.2803 13.3729 62.2803 12.3836V11.6669C62.2803 10.6777 62.5468 9.92687 63.0801 9.41519C63.6467 8.86937 64.4142 8.59674 65.3809 8.59674H66.8809V3.07019C66.8809 2.08093 67.1309 1.33015 67.6309 0.818455C68.1642 0.272851 68.9144 0 69.8809 0H71.8809Z" fill="var(--fill-0, black)"/>
</g>
</g>
</g>
</svg>
