<svg preserveAspectRatio="none" width="100%" height="100%" overflow="visible" style="display: block;" viewBox="0 0 176.139 44.2074" fill="none" xmlns="http://www.w3.org/2000/svg">
<g id="Group 264">
<path id="Vector 81" d="M88.3782 26.8988C86.6187 26.6612 84.8349 26.4283 83.062 26.2064C60.5887 23.3722 36.4782 22.1873 14.1351 23.772C13.8438 23.7873 13.5772 23.7971 13.3537 23.8012C13.1564 23.8088 12.9525 23.8121 12.7075 23.8033C12.5846 23.7987 12.451 23.7909 12.2974 23.7761C12.2204 23.7686 12.1384 23.7593 12.0495 23.7472C11.9242 23.7309 11.617 23.6852 11.2962 23.5986C10.6974 23.3704 9.35493 23.231 7.95271 21.0433C7.31066 20.0202 7.07947 18.2993 7.36223 17.2227C7.61621 16.1063 8.0576 15.4751 8.37771 15.0494C8.70946 14.6261 8.97419 14.3893 9.19014 14.2047C9.29446 14.1166 9.40811 14.0291 9.47191 13.9822C9.50943 13.9548 9.54535 13.9292 9.5799 13.9051C9.71799 13.809 9.83458 13.7361 9.93898 13.674C10.7956 13.195 10.8902 13.2232 11.1809 13.11C11.4498 13.019 11.6017 12.9843 11.7451 12.9531C11.8884 12.9222 12.0142 12.9002 12.1283 12.8829C12.5958 12.8111 12.7299 12.8587 13.1731 12.7311C15.5786 12.0747 16.7829 11.2868 18.4758 10.8311C26.5123 8.72304 34.0069 6.97148 41.9372 5.33549C50.1006 3.69533 46.502 5.66572 49.3779 5.3406C55.0144 4.74644 50.0133 4.23856 52.1238 3.46769C57.8792 2.39603 63.7247 1.47661 69.5709 0.741809C74.5284 -0.00922251 76.1973 7.50054 71.39 8.92532C70.7913 9.08579 70.1744 9.24845 69.5404 9.41318C70.1546 9.17932 70.751 8.94828 71.3293 8.72021C75.8919 7.36797 74.308 0.240502 69.6029 0.953301C68.6746 1.17646 67.7364 1.40424 66.7939 1.6346C67.734 1.4936 68.8133 1.35867 69.6531 1.2862C73.961 0.633584 75.4112 7.15929 71.2338 8.39737C69.7485 8.73179 68.9786 8.78153 71.0945 7.92639C74.7099 6.85487 73.4548 1.20703 69.7264 1.77185C69.5173 1.82504 69.2815 1.88303 69.0169 1.94634C69.264 1.93406 69.507 1.92374 69.748 1.91453C73.3061 1.3755 74.5039 6.76543 71.0535 7.78802C70.3033 7.91887 69.5222 8.04863 68.6993 8.19876C68.603 8.80391 63.7128 10.1885 63.3918 10.5997C63.032 11.0316 65.733 10.2304 65.7274 10.2588C65.6394 10.7336 54.3504 13.0831 53.5299 13.2186C51.3819 13.6301 53.0814 12.5113 51.2791 13.003C48.1962 13.8393 50.5792 14.6723 45.9447 13.9209C44.406 14.9059 44.1936 14.6402 42.0611 15.1123C41.7808 15.1745 42.078 15.4567 41.9573 15.495C38.8079 16.5152 41.1251 15.3001 41.1001 15.2704C40.6723 14.7686 37.2865 15.8496 36.552 15.9666C27.2923 17.4648 20.4974 18.5393 10.9137 20.7881C9.97825 21.0116 8.22715 21.4997 6.4084 22.045C5.95649 22.1808 5.51859 22.315 5.04901 22.462C4.82379 22.5328 4.61114 22.6008 4.41215 22.6655C4.17342 22.7424 3.95147 22.8156 3.75075 22.8837C3.39354 23.0045 2.90876 23.1763 2.64017 23.2856C2.44217 23.3644 2.30078 23.4289 2.2218 23.4693C2.16572 23.4965 2.12825 23.5256 2.1751 23.4897C2.18634 23.4805 2.20233 23.467 2.22354 23.4461C2.24866 23.4172 2.25373 23.4294 2.35389 23.2849C2.43457 23.162 2.55383 22.9073 2.51938 22.5772C2.48921 22.2457 2.29158 21.9763 2.15499 21.862L1.51579 21.5707C1.79455 21.6106 2.05555 21.6444 2.26725 21.6756C4.22837 21.9383 3.14314 22.2729 4.18218 22.5456C5.93407 21.6206 7.52923 21.5763 11.3414 22.3287C12.779 21.6117 12.5839 22.2114 15.3173 22.1016C17.5902 22.0104 21.5621 21.1546 24.0607 21.9373C21.1896 21.842 21.4835 22.2118 18.2497 22.3989C17.1696 22.4844 5.97356 22.2773 6.78096 23.0232C7.20412 23.4431 10.9359 23.1759 11.0753 23.2472C11.907 23.6894 9.81234 24.1757 7.9721 23.9351C8.4373 23.8634 8.99075 23.7915 9.48707 23.7179C5.37207 23.0637 8.12945 25.2045 5.06071 23.2887C4.67545 23.0498 4.84782 22.8309 4.21759 22.5624C4.07863 22.6512 4.85373 22.9338 4.1731 22.9384C3.48213 22.9461 2.22085 22.3891 1.99516 22.745C1.64458 23.2876 4.52978 23.2825 4.73897 23.3109C4.74144 23.3077 4.7439 23.3044 4.74637 23.3012C6.63717 23.6928 2.65294 23.5225 2.4584 23.532C1.5686 23.6926 1.68823 23.9042 1.19478 24.0432C1.01757 24.0169 0.631584 23.8479 0.499802 23.7266C0.264864 23.5602 -0.0703425 23.025 0.013018 22.4955C0.0435386 22.2433 0.133769 22.0442 0.221069 21.9001C0.264939 21.8277 0.3114 21.7646 0.352363 21.7139C0.369528 21.6903 0.386706 21.6678 0.403915 21.6463C0.542359 21.4747 0.674608 21.3577 0.821398 21.2444C0.997089 21.1173 1.06584 21.063 1.18363 20.9834C1.29769 20.9067 1.4331 20.8249 1.60286 20.7343C2.66047 20.1275 5.25374 19.5002 6.22943 19.1809C6.70679 19.0228 6.53932 18.9865 6.35973 18.9529C6.16511 18.9235 5.91527 18.9091 6.24963 18.7884C6.82977 18.5714 7.75599 18.5315 8.45334 18.2821C8.76274 18.1715 8.67423 17.8917 8.82754 17.8413C10.5159 17.2896 9.53129 18.1718 11.0392 17.7498C12.0403 17.4685 15.2 16.1009 12.8648 16.5055C13.9794 16.1674 14.9809 15.8765 16.0949 15.5568C15.37 15.6441 14.6455 15.7609 13.9672 15.8228C16.0303 15.4579 16.8426 14.7451 18.1306 14.3942C19.3939 14.05 20.7195 14.3501 22.0383 13.7316C24.9005 12.4021 17.5259 14.4688 16.5548 14.5953C16.1852 14.64 17.4514 13.8464 17.6698 13.7798C18.6322 13.4857 19.7917 13.5531 20.5402 13.3575C23.1341 12.6758 24.6467 11.8573 27.1169 11.1756C35.54 8.85432 46.0042 6.11078 53.941 4.00013C56.9043 3.21376 58.8072 3.23359 60.1188 2.87417C63.2117 2.01982 63.4477 1.50436 66.1352 0.728595C66.9163 0.500561 67.8756 0.23589 68.7497 0L70.9603 9.94516C67.3098 10.4074 63.0944 10.8839 60.3841 11.3201C58.0173 11.6983 55.9651 12.5325 55.3578 12.663C46.8802 14.4776 36.5867 16.8435 29.6312 18.641C26.3564 19.4835 24.7206 19.4441 24.037 19.6433C21.1852 20.4911 22.0487 20.6703 19.7544 21.2936C18.4985 21.6427 18.1799 21.3385 18.0029 21.3762C16.5649 21.6918 16.3802 22.2866 15.498 22.6296C15.3469 22.6879 15.0761 22.8156 15.2479 22.736C15.3135 22.7007 15.4303 22.6458 15.6946 22.4598C15.7417 22.4255 15.718 22.445 15.8438 22.3484C15.9414 22.2722 16.0566 22.1771 16.1957 22.0452C16.4666 21.7731 16.876 21.3954 17.3109 20.4712C17.7557 19.6261 18.0221 17.6921 17.3139 16.2553C16.6603 14.831 15.6627 14.1674 15.0715 13.8441C14.4488 13.517 14.0576 13.4302 13.7732 13.3637C13.6313 13.3331 13.5168 13.3146 13.4204 13.3013C13.3596 13.2931 13.3382 13.2907 13.3013 13.2865C13.1674 13.2719 13.0744 13.2671 13.0044 13.2645C12.866 13.2599 12.8167 13.2636 12.807 13.2635C18.989 12.8226 25.5385 12.7306 31.9762 12.7091C32.4842 12.7066 32.4427 12.9325 32.7755 12.9174C34.2285 12.8495 33.5275 12.4992 35.0274 12.4674C38.1308 12.4042 41.3133 12.5023 44.5916 12.6374C44.9153 12.6509 45.0696 12.9444 45.8031 12.9671C46.5361 12.9902 47.11 12.734 48.2909 12.7942C51.3368 12.9512 54.3131 13.4313 57.5399 13.6546C58.0676 13.6909 58.7492 13.3858 59.5587 13.4455C62.0442 13.6246 65.7654 14.2428 67.8806 14.4478C73.608 14.9923 78.9891 15.463 84.3476 16.0932C85.5812 16.2384 86.8383 16.3949 88.0795 16.5603C89.638 16.7686 90.9604 17.2775 91.7656 17.3975C93.575 17.6677 92.2502 17.1726 94.0913 17.4323C109.108 19.5751 124.058 22.2395 139.124 25.0105C144.974 26.089 152.153 27.1684 157.807 28.4368C157.868 28.4504 157.929 28.4639 157.989 28.4775C160.347 29.0136 160.722 29.5281 162.391 29.9021C165.446 30.6086 166.024 30.1476 169.427 31.0412C170.142 31.2419 170.812 31.4713 171.684 31.8518C172.128 32.0512 172.591 32.2598 173.263 32.6743C173.692 32.9745 174.028 33.0727 174.958 34.1345C175.247 34.4715 176.233 35.8511 176.132 37.6321C176.098 38.5495 175.775 39.4418 175.378 40.0698C174.994 40.6691 174.724 40.9239 174.415 41.2077C173.766 41.7606 173.452 41.8861 173.135 42.0483C172.979 42.1226 172.832 42.1843 172.692 42.2383C172.555 42.2911 172.476 42.3164 172.373 42.3502C172.177 42.4133 171.991 42.4642 171.81 42.5086C171.634 42.5513 171.517 42.5739 171.373 42.6018C170.775 42.7151 170.375 42.753 169.93 42.7996C169.086 42.8814 168.309 42.9314 167.617 43.001C164.758 43.2629 163.574 43.823 160.426 43.9854C159.793 44.0155 159.147 44.0269 158.4 44.0291C156.18 44.0342 153.646 43.9346 151.554 43.98C143.656 44.1488 135.868 44.2059 128.053 44.2074C124.157 44.207 120.241 44.1899 116.36 44.1549C114.397 44.137 112.448 44.1148 110.492 44.0861C109.558 44.0724 108.512 44.0553 107.562 44.0367C107.036 44.026 106.593 44.0176 106.026 44.0008C105.943 43.998 105.939 43.9984 105.791 43.9922C105.742 43.99 105.695 43.988 105.613 43.9826C105.57 43.9797 105.521 43.9766 105.428 43.9676C105.311 43.9509 105.264 43.9685 104.715 43.8507C104.561 43.8127 104.369 43.771 103.986 43.6256C103.601 43.4078 102.996 43.4443 101.645 41.8652C100.998 41.0878 100.275 39.3147 100.626 37.6176C100.951 35.9261 101.859 34.9849 102.402 34.5061C103.554 33.5815 103.989 33.5727 104.324 33.4337C104.94 33.2521 105.086 33.2584 105.245 33.2309C105.388 33.2127 105.465 33.2067 105.528 33.2015C105.757 33.1852 105.798 33.1874 105.866 33.185C105.926 33.1837 105.971 33.1832 106.019 33.1828C106.039 33.1826 106.051 33.1825 106.067 33.1824C106.098 33.1823 106.129 33.1821 106.162 33.1821C106.228 33.182 106.3 33.1821 106.381 33.1823C106.658 33.1833 106.847 33.1848 107.161 33.1876C116.614 33.2978 126.016 33.5048 135.522 33.7717C144.423 34.0185 154.34 34.073 163.485 34.5785C164.352 34.6217 163.002 35.1437 165.744 35.0101C166.122 34.9914 166.399 34.9543 166.815 34.8997C167.026 34.8718 167.16 34.8433 167.343 34.8081C167.431 34.7909 167.488 34.7717 167.431 34.764C167.435 34.7627 167.371 34.7544 167.055 34.8197C166.876 34.8698 166.664 34.8772 166.003 35.2111C165.673 35.4056 165.15 35.6511 164.487 36.5618C163.773 37.3692 163.462 39.6146 164.027 40.6741C165.041 42.7317 165.879 42.7358 166.219 42.9903C166.601 43.165 166.775 43.2054 166.909 43.2454C167.161 43.313 167.22 43.3187 167.251 43.3284C166.649 43.3837 164.891 43.3931 163.104 43.2925C142.774 42.2309 120.954 40.5148 100.191 40.3129C88.9613 40.2215 77.5377 40.6737 66.451 41.3604C46.5948 42.6689 27.1197 43.3765 10.1064 41.7865C9.81238 41.7641 9.63192 41.6733 9.65209 41.5035C9.66278 41.4582 9.6646 41.4183 9.7817 41.3293C9.88108 41.2481 10.0725 41.1008 10.1773 40.9653C10.2885 40.8229 10.2149 40.8242 10.0465 40.8817C9.88087 40.9347 9.70794 40.9562 9.61646 40.9358C9.43457 40.8924 9.4621 40.7744 9.4624 40.6775C9.4701 40.577 9.50165 40.4752 9.5645 40.3759C9.6078 40.28 9.67564 40.1874 9.76278 40.1033C9.82948 40.0224 9.91257 39.95 10.0105 39.8906C10.7551 40.0469 11.4736 40.2752 12.2497 40.487C13.0362 38.8172 12.9179 39.2207 16.5185 39.0711C18.7536 38.9882 16.9206 38.4473 18.0832 38.1672C19.6217 37.7889 26.744 36.576 25.4426 37.7092C25.8923 37.5008 26.2637 37.3049 26.6947 37.1022C31.9086 36.6529 36.9799 36.1605 42.0584 35.654C42.9371 35.5661 42.9838 35.2342 43.8927 35.1461C46.3067 34.9087 48.2611 35.0539 50.8065 34.9322C52.1544 34.8678 52.3303 34.4803 54.157 34.4444C55.9149 34.4119 55.9084 34.9262 58.3515 34.2911C56.7762 33.7057 63.5351 33.9378 66.2454 33.8469C66.2986 33.8451 66.3502 33.8431 66.4001 33.841C66.7376 33.8244 69.8014 33.1719 71.3791 33.2157C73.0117 33.254 75.4444 33.5946 77.9417 33.3709C79.1012 33.2659 79.8169 32.8118 81.0843 32.7841C81.9624 32.765 83.0239 33.1666 84.1529 33.1861C85.2828 33.2045 87.693 32.8881 88.1467 32.8864C89.7607 32.8762 87.9817 33.1454 89.079 33.1678C94.3741 33.2715 100.518 33.5207 105.737 33.4447C106.379 33.4355 105.499 33.0839 105.584 33.0747C109.948 32.7634 107.613 33.1455 108.781 33.4699C109.918 33.7787 118.241 33.8481 118.325 33.277C118.562 34.0078 120.43 33.5112 120.907 33.505C122.777 33.4815 122.403 34.0961 124.217 33.9615C124.883 33.9129 123.605 33.4473 124.318 33.4832C126.067 33.5718 127.66 34.3063 130.001 34.4586C130.572 34.496 130.771 34.2 131.778 34.2474C132.762 34.2929 137.021 34.8292 135.083 34.1147C137.6 34.7255 138.173 34.4668 141.148 34.6052C141.923 34.6423 142.838 35.1694 144.477 35.09C145.03 35.063 145.037 34.5922 145.854 34.6249C147.711 34.6983 149.439 35.2653 151.858 35.4023C156.295 35.6592 161.037 35.5547 165.72 36.0002C166.955 36.1284 166.642 36.4833 168.225 36.7318C168.324 36.7485 168.418 36.7631 168.586 36.8062C168.674 36.8307 168.776 36.8552 168.976 36.942C169.161 37.075 169.558 37.0414 170.141 38.0856C170.257 38.3228 170.388 38.7913 170.342 39.2395C170.304 39.6907 170.125 40.0814 169.947 40.3367C169.574 40.8491 169.284 40.9724 169.103 41.0769C168.738 41.253 168.613 41.2596 168.492 41.2907C168.271 41.3353 168.155 41.3412 168.133 41.3446C167.608 41.4128 165.498 41.8459 164.171 41.8138C163.381 41.7994 159.438 41.5068 158.638 41.478C157.324 41.4353 157.061 41.8909 156.357 41.7974C154.261 41.5262 155.932 40.8642 153.427 41.7674C152.575 41.2503 151.147 41.2895 150.666 40.6564C149.785 41.3377 148.712 40.6661 147.039 40.8804C145.388 41.0951 144.003 42.4148 143.622 40.9748C142.841 41.1413 139.541 41.4021 138.983 41.4173C137.343 41.4597 138.224 41.0728 136.986 41.1119C136.768 41.1182 136.993 41.3926 135.594 41.349C134.679 41.3207 127.955 41.2196 127.549 41.1767C122.987 40.6925 130.039 40.9396 131.049 40.6579C131.222 40.7373 131.393 40.8169 131.578 40.8955C133.597 41.0489 132.452 40.4211 131.54 40.2672C130.625 40.1134 128.904 40.3649 128.147 40.1537C127.761 40.0476 128.023 39.3153 129.158 39.4186C127.939 39.1765 129.611 38.9585 129.13 38.7395C128.604 38.4996 123.063 38.3557 123.044 38.7606C124.06 38.7881 125.37 38.7912 126.399 38.8212C127.753 39.5432 123.582 41.8953 119.782 40.8836C117.041 40.1517 121.611 39.6592 115.052 40.1562C116.074 40.1979 116.894 40.2746 117.819 40.3163C117.894 40.8457 116.468 40.2458 115.673 40.4034C115.303 40.4807 117.582 40.885 115.595 40.9832C113.947 40.206 112.597 40.9475 109.78 40.9217C110.599 40.797 111.327 40.6722 112.159 40.5481C107.383 39.9394 118.451 39.8991 109.211 39.476C110.276 39.4643 111.413 39.4852 112.554 39.4628C112.037 39.1789 112.881 38.376 112.417 38.198C111.097 37.7298 109.243 37.9777 107.662 37.9218C106.991 37.8985 107.412 37.6829 107.353 37.6811C107.262 37.6777 107.186 37.6782 107.122 37.6819C106.736 37.6968 106.626 37.7706 106.496 37.8419C106.45 37.8776 106.306 37.9124 106.211 37.94C106.158 37.9538 106.11 37.9657 106.056 37.9751C106.02 37.9777 105.989 37.9802 105.961 37.9828C105.917 37.9896 105.966 37.9739 105.791 38.0088C105.754 38.0251 105.716 38.0085 105.551 38.1347C105.476 38.1939 105.314 38.3892 105.346 38.6566C105.383 38.9166 105.526 39.0219 105.586 39.07C105.829 39.2148 105.805 39.1603 105.844 39.178C105.89 39.1846 105.899 39.1837 105.917 39.1848C105.948 39.186 105.98 39.1867 106.025 39.188C107.062 39.1988 110.049 39.561 110.515 39.5337C111.768 39.4638 109.717 38.7934 109.829 38.7476C110.605 38.4537 112.248 38.7356 112.164 38.3314C111.281 38.3825 109.897 38.3899 108.557 38.3637C107.861 38.3499 107.225 38.3295 106.54 38.297C106.474 38.2934 106.389 38.2891 106.294 38.2842C106.205 38.2794 106.135 38.2749 106.082 38.2705C106.032 38.2686 105.938 38.2577 106.009 38.2661C106.017 38.268 106.028 38.2696 106.055 38.2791C106.079 38.3008 106.139 38.2663 106.248 38.4676C106.3 38.5771 106.25 38.7462 106.195 38.7993C106.142 38.8607 106.107 38.8745 106.083 38.8871C106.037 38.9082 106.022 38.909 106.009 38.9124C105.968 38.9203 105.974 38.9178 105.973 38.9187C105.976 38.9191 105.997 38.919 106.026 38.9193C106.129 38.9208 106.15 38.9237 106.235 38.9264C106.303 38.9292 106.424 38.9325 106.481 38.9358C106.54 38.9391 106.603 38.9425 106.669 38.9462C106.803 38.9535 106.952 38.9615 107.111 38.9701C109.003 39.0955 109.737 39.2995 107.106 39.5316C106.919 39.5448 106.742 39.5585 106.585 39.5728C106.472 39.5874 106.176 39.6013 106.048 39.6185C106.014 39.6206 105.979 39.6247 106.027 39.6238C106.045 39.6222 106.057 39.625 106.148 39.6084C106.207 39.5857 106.241 39.626 106.543 39.4381C106.621 39.3811 106.731 39.296 106.841 39.1124C106.951 38.9361 107.022 38.6192 106.957 38.3592C106.801 37.824 106.539 37.7488 106.448 37.6789C106.24 37.5722 106.205 37.5841 106.159 37.5693C106.119 37.5608 106.101 37.5582 106.086 37.5558C106.057 37.5516 106.049 37.5506 106.042 37.5495C106.024 37.5463 106.058 37.5465 106.101 37.5462C106.123 37.5451 106.137 37.5436 106.159 37.5424C106.233 37.5371 106.386 37.5336 106.491 37.5284C106.585 37.5228 106.695 37.5175 106.822 37.5124C106.953 37.5074 107.085 37.5023 107.194 37.4965C107.053 37.4527 106.843 37.4062 106.705 37.3605C106.557 37.3145 106.471 37.2692 106.316 37.2212C106.197 37.1744 106.098 37.1262 106.081 37.0818C106.119 37.085 106.065 37.0505 106.368 37.1191C106.416 37.1327 106.477 37.1498 106.581 37.196C106.684 37.2501 106.839 37.2989 107.102 37.5853C107.228 37.73 107.386 37.9687 107.45 38.3034C107.519 38.6344 107.448 39.0208 107.318 39.2705C107.042 39.7777 106.787 39.8669 106.657 39.9512C106.386 40.0852 106.319 40.0798 106.251 40.1004C106.19 40.1141 106.158 40.1193 106.133 40.1239C105.979 40.1503 106.026 40.1537 106.027 40.1662C106.072 40.1875 106.099 40.2096 106.119 40.2316C106.325 40.4078 106.399 40.5837 106.211 40.7405C106.17 40.7798 106.123 40.8181 106.086 40.8552C106.066 40.8645 106.037 40.874 106.041 40.883C106.043 40.8874 106.049 40.892 106.08 40.8948C106.096 40.8961 106.118 40.8972 106.163 40.8953C106.216 40.8903 106.255 40.898 106.491 40.8468C106.555 40.8314 106.635 40.8118 106.766 40.7633C106.899 40.7078 107.08 40.6532 107.416 40.3888C107.581 40.2516 107.798 40.0475 107.996 39.6829C108.194 39.3279 108.326 38.7691 108.246 38.2609C108.057 37.1967 107.483 36.8421 107.257 36.6652C106.746 36.344 106.633 36.3717 106.513 36.3261C106.406 36.2985 106.353 36.2894 106.311 36.2812C106.16 36.2545 106.152 36.2538 106.129 36.2469C106.099 36.2363 106.122 36.2294 106.158 36.2223C106.21 36.1906 106.305 36.1617 106.458 36.1357C106.581 36.109 106.684 36.0834 106.846 36.0612C107.439 35.9711 108.257 35.9184 109.261 35.9191C112.594 35.9184 110.475 36.241 112.175 36.6643C112.416 36.719 116.909 36.9735 117.113 36.6957C116.92 37.3367 118.387 37.9261 117.388 38.5768C117.241 38.6726 115.411 38.6087 116.047 39.1514C116.375 39.4242 117.263 40.0198 117.116 40.3592C117.495 40.1269 117.912 39.8654 118.295 39.6228C121.052 39.5886 121.444 39.848 122.941 40.3077C122.876 40.1221 121.498 39.3305 123.602 39.5897C123.708 39.6049 123.812 39.8849 124.879 40.0342C127.043 40.3331 127.519 40.4233 125.824 41.2254C130.34 40.801 131.295 41.7212 135.922 41.4804C135.007 40.4232 133.382 40.6776 129.154 40.8456C128.975 40.5939 128.888 40.3455 128.7 40.0911C134.326 40.7031 131.542 40.6234 134.735 40.1359C135.516 40.0173 139.675 40.1671 138.29 39.4532C137.964 39.2859 135.379 39.2928 135.677 39.0313C135.736 38.9822 138.874 38.8686 139.153 38.9366C142.626 39.7804 136.412 40.3639 145.988 40.0588C146.254 40.0493 146.348 39.7429 146.863 39.699C147.832 39.6167 147.836 39.9714 148.712 39.8858C149.577 39.7998 150.783 39.3159 152.078 39.7458C154.462 40.5282 148.853 41.0409 146.343 40.6147C145.691 41.2878 152.843 41.5404 158.346 41.4906C161.446 41.468 164.026 41.3304 164.417 41.2757C169.327 40.6055 161.143 41.2882 160.737 40.9626C160.558 40.8434 160.598 39.2861 158.578 40.3462C157.977 40.6608 160.53 40.9962 159.02 41.1979C158.724 41.237 158.502 41.2503 158.341 41.2463C157.716 41.2286 158.071 40.918 157.985 40.8939C157.624 40.7922 155.991 40.9904 155.799 40.9273C152.586 39.9786 152.844 38.4885 157.131 40.6295C158.978 40.0971 154.695 39.3765 157.005 38.998C157.464 38.9224 157.894 38.8768 158.291 38.8533C160.411 38.7318 161.853 39.181 162.178 39.196C166.4 39.3848 161.489 38.6125 166.632 38.6299C169.525 38.5655 162.387 39.7114 168.957 39.0215C169.617 38.9262 170.239 38.8008 170.684 38.6544C170.949 38.5673 171.137 38.4922 171.364 38.3578C171.542 38.2349 171.866 38.0635 171.952 37.5572C171.989 37.0941 171.734 36.8783 171.657 36.8031C171.55 36.7076 171.442 36.6474 171.391 36.6329C171.271 36.5899 171.206 36.6031 171.18 36.6455C171.135 36.7368 171.196 36.92 171.209 37.1462C171.208 37.3695 171.019 37.4356 170.847 37.5396C170.815 37.58 170.76 37.5735 170.591 37.5204C170.417 37.4638 170.198 37.4101 170.081 37.3965C169.973 37.3886 169.956 37.4072 170.185 37.5307C170.241 37.562 170.308 37.5985 170.372 37.637C170.442 37.6779 170.529 37.7357 170.562 37.7638C170.58 37.7759 170.578 37.7912 170.53 37.7098C170.505 37.6636 170.47 37.5776 170.464 37.4625C170.456 37.342 170.498 37.2002 170.548 37.1205C170.749 36.8803 170.608 37.0657 170.446 37.1048C170.444 37.3335 170.328 37.666 170.129 37.9139C169.097 37.9946 167.403 37.0647 166.887 37.0704C164.341 37.0824 164.513 37.6065 162.95 37.0251C164.063 37.6949 162.316 37.3392 161.629 37.5118C159.469 38.0811 161.824 38.2385 158.269 37.8364C157.893 37.7912 157.441 37.7386 156.888 37.6779C157.382 37.8944 157.834 38.108 158.279 38.3215C158.515 38.4265 158.748 38.5315 158.984 38.6367C158.755 38.646 158.522 38.6551 158.287 38.6641C157.864 38.6807 157.431 38.6968 156.988 38.7122C155.988 37.9918 152.437 38.1306 155.643 37.3427C151.812 37.1839 150.231 37.3457 149.413 37.9279C149.255 38.0387 148.679 38.0857 147.991 38.0988C148.122 38.2603 148.29 38.76 148.182 38.8218C147.233 39.3656 145.741 38.436 146.248 38.079C145.768 38.063 145.395 38.0435 145.263 38.035C144.427 37.9807 146.065 37.6569 145.388 37.5474C145.171 37.5125 142.79 37.5828 142.75 37.4514C142.461 36.6103 146.366 37.2273 138.536 36.7209C138.346 37.4846 141.979 37.326 141.045 38.1345C140.044 39.0041 137.997 37.8283 137.547 38.8951C137.382 38.7186 137.309 38.5718 137.166 38.3711C133.992 38.8218 133.96 37.9293 132.99 37.7269C131.111 37.3339 122.475 37.3129 130.223 38.1519C129.096 38.22 127.919 38.2453 126.803 38.3028C126.562 36.7035 127.24 37.3498 121.802 37.0457C120.597 36.9778 120.233 36.2715 119.036 37.0902C119.211 36.2751 115.676 36.7222 115.328 36.6172C113.212 35.9431 121.116 35.1525 122.098 36.606C123.424 36.058 123.417 36.8021 124.902 36.7189C127.044 36.5979 127.342 36.4562 129.882 37.0266C132.395 36.2771 120.084 36.5949 127.552 35.6395C131.392 35.1312 144.86 34.9043 158.196 34.371C161.021 34.247 163.824 34.1064 166.376 33.8576C167.036 33.7923 167.638 33.7213 168.184 33.6373C168.462 33.5946 168.711 33.5496 168.911 33.5052C169.093 33.4681 169.287 33.3995 169.128 33.4459C169.092 33.458 169.008 33.4868 168.858 33.5603C168.701 33.6469 168.544 33.6977 168.08 34.0847C167.867 34.271 167.62 34.5188 167.366 34.8849C167.037 35.3558 166.718 36.0507 166.616 36.8294C166.391 38.4234 167.121 39.6711 167.434 40.0722C168.124 40.928 168.295 40.9004 168.405 41.0019C168.492 41.0575 168.482 41.0501 168.439 41.0338C168.236 40.95 167.733 40.7795 167.222 40.6317C162.917 39.4478 158.557 38.6678 155.778 38.1081C155.162 37.9887 154.596 37.8797 154.102 37.7854C136.178 34.446 126.626 32.9656 110.438 30.2411C108.84 29.9572 96.7553 28.17 99.3956 27.6755C99.7737 27.6002 105.033 28.0631 100.672 26.6852C101.517 27.2327 98.8527 27.1006 98.6257 27.1117C93.4292 27.3484 96.3248 27.9943 88.3782 26.8988ZM65.5285 16.3165C76.0671 17.4758 68.3709 16.1756 70.6908 15.0333C69.3609 14.901 67.9543 14.7682 66.6203 14.6486C66.9661 14.7636 67.3088 14.8785 67.6576 14.9947C67.6591 14.9949 67.6606 14.995 67.6622 14.9951C66.9487 15.4337 66.253 15.8756 65.5285 16.3165ZM10.8879 16.1142C11.2568 15.8378 11.6132 15.5647 11.9948 15.2901C13.3762 15.0019 14.722 14.7265 16.1171 14.4428C15.9899 14.598 15.8562 14.7563 15.7197 14.9138C14.0948 15.3059 12.507 15.6924 10.8879 16.1142ZM144.867 40.8123C142.886 40.3191 143.072 41.2014 140.444 40.7946C140.763 41.4458 141.118 42.0829 141.458 42.7276C143.457 42.634 143.917 42.3871 146.086 42.5428C145.83 42.3342 145.57 42.1243 145.325 41.9142C144.966 41.9595 144.582 42.0109 144.231 42.0507C143.679 41.4665 147.13 41.3753 144.873 40.8109C144.871 40.8114 144.869 40.8118 144.867 40.8123ZM124.631 40.9649C123.553 40.8701 119.373 40.5027 118.784 40.7638C116.826 41.6558 128.698 41.2138 119.952 41.9246C119.991 42.0532 119.949 42.1783 119.947 42.3052C121.529 42.3695 123.126 42.4262 124.74 42.4788C124.66 41.9724 124.722 41.474 124.631 40.9649ZM103.545 20.994C105.15 21.3042 112.911 22.114 110.495 21.1407C109.783 20.853 106.218 21.1242 104.915 20.8869C104.073 20.7327 105.09 20.4307 103.395 20.3377C103.439 20.5468 103.451 20.7731 103.55 20.9934C103.549 20.9936 103.547 20.9938 103.545 20.994ZM100.121 23.1427C101.798 23.314 103.503 23.4724 105.194 23.6497C104.049 22.9465 101.589 22.9053 101.556 22.1651C102.024 22.1805 102.487 22.1959 102.955 22.2121C103.284 22.4237 103.604 22.6341 103.925 22.8449C105.425 22.6784 104.587 22.347 107.249 22.8823C105.8 21.5419 105.585 20.9025 100.818 21.302C101.777 20.8445 101.244 18.794 98.4875 19.7884C97.9728 19.9725 99.9382 20.4395 99.956 20.4842C100.187 21.035 99.0324 21.1914 99.29 21.7177C99.4045 21.9552 100.623 22.1352 100.758 22.4622C100.821 22.621 99.6006 22.8631 100.121 23.1427ZM97.1735 20.0865C97.7357 19.8566 96.0754 18.8699 94.5117 18.7966C92.0845 18.6836 95.7681 19.9126 97.1735 20.0865ZM10.879 16.1172C10.882 16.1162 10.8849 16.1152 10.8879 16.1142C10.8866 16.1153 10.8852 16.1163 10.8839 16.1173C10.8822 16.1173 10.8806 16.1172 10.879 16.1172ZM130.099 41.373C128.857 41.6262 126.989 41.5707 127.128 41.9899C126.532 41.9022 125.897 41.8153 125.295 41.7271C125.3 41.8528 125.31 41.9788 125.314 42.1033C127.161 42.2001 128.97 42.2947 130.804 42.3883C130.576 42.0504 130.366 41.7113 130.099 41.373ZM110.156 40.8349C107.84 40.7513 109.765 41.3545 109.254 41.62C108.792 41.8873 106.658 41.6199 106.941 42.0191C108.269 42.0642 109.724 42.1051 111.086 42.142C110.716 41.7072 110.47 41.2664 110.152 40.8348C110.153 40.8349 110.155 40.8349 110.156 40.8349ZM22.1886 14.8735C23.7693 14.9255 23.1464 15.377 26.2342 14.7575C26.2319 14.7576 26.2296 14.7577 26.2274 14.7577C23.2605 14.4969 19.4052 14.3798 16.1995 14.9406C18.1933 15.2694 19.6991 14.8025 22.1886 14.8735ZM150.333 42.0738C150.99 41.7265 147.911 41.4565 147.243 41.7765C146.144 42.2971 149.344 42.6039 150.333 42.0738ZM64.1837 5.83218C66.3496 4.39577 61.697 3.9509 57.1395 5.34331C56.7464 5.46148 59.8062 5.23205 58.9556 5.60108C58.8695 5.63689 57.2204 5.9204 56.8422 6.14348C56.4635 6.36615 56.9548 6.62064 56.3161 6.88966C55.1968 7.35856 52.4707 7.4266 51.6675 7.92878C51.5614 7.99486 53.2818 8.1143 53.3882 8.11156C55.1167 8.04796 56.6173 7.15072 56.8772 7.09716C58.2082 6.82265 58.0936 7.32352 58.4515 7.36825C59.1254 7.45259 60.2084 7.04279 60.2903 7.04379C62.3895 7.07883 57.7405 7.80923 57.1507 8.10162C55.558 8.87552 57.189 8.98123 53.2249 10.0329C52.8486 10.1325 48.2902 11.0309 54.1337 10.3836C43.0944 13.7536 59.9041 9.82638 61.7142 9.33359C62.5432 9.07124 61.1786 8.8615 61.6581 8.57081C62.7522 7.90455 64.7559 7.47806 64.4654 6.86975C63.8473 5.58876 61.3438 6.93162 59.4795 7.0452C59.6174 6.71836 59.6383 6.42046 59.942 6.07001C59.4648 6.54854 64.0283 5.93213 64.1842 5.83482C64.184 5.83394 64.1839 5.83306 64.1837 5.83218ZM35.8854 13.2825C33.2734 13.4868 33.6451 14.2837 31.2328 14.3744C29.3874 15.633 33.3704 14.5846 33.858 14.5151C36.0204 14.1912 36.1866 15.0163 38.2948 14.2535C37.4247 13.9463 36.7206 13.5962 35.8854 13.2825ZM57.9654 8.90004C56.3494 9.65089 59.3851 9.06734 59.5236 9.12911C61.0246 9.7368 51.9103 11.3108 57.9654 8.90004ZM113.279 24.3001C114.147 24.4726 113.661 23.9694 114.45 23.9744C115.239 23.9777 117.814 24.7708 117.79 24.5038C117.768 24.2349 113.049 22.7624 117.919 23.4281C117.78 23.2564 117.853 23.1581 117.796 23.0145C116.465 22.7871 115.121 22.5573 113.789 22.3345C114.453 22.87 115.129 23.4306 115.764 23.9485C114.962 24.1547 114.612 23.6617 114.573 23.6551C114.573 23.6555 114.573 23.656 114.572 23.6564C113.172 23.4592 111.333 23.9153 113.279 24.3001ZM44.1776 15.4773C43.8827 16.5147 46.0157 15.4057 46.8736 15.3076C47.7472 15.208 48.9079 15.6419 48.4843 15.1748C47.0926 14.8059 44.2146 15.3594 44.1775 15.4786C44.1776 15.4782 44.1776 15.4777 44.1776 15.4773ZM22.2667 16.7678C20.2379 17.5985 20.6496 17.756 18.0357 18.2059C18.2042 18.4192 18.375 18.6377 18.544 18.8471C20.5456 18.2635 20.2019 17.5985 22.6268 17.2305C23.0253 17.1722 22.3432 17.9645 24.049 17.3052C23.4615 17.14 22.8402 16.9499 22.2667 16.7678ZM13.3952 15.9489C13.2351 15.9607 13.0862 15.9797 12.9492 16.0046C12.9069 16.0146 12.8878 16.0229 12.9056 16.0333C12.9147 16.0387 12.9332 16.0446 12.9653 16.053C13.0071 16.0659 12.9977 16.0551 13.2642 16.1239C13.4706 16.22 14.0935 16.2561 14.7001 17.3291C14.9765 17.838 14.9867 18.6293 14.8283 19.046C14.6802 19.4891 14.4936 19.7045 14.369 19.8473C14.2401 19.9875 14.1504 20.0542 14.0858 20.1007C14.029 20.1394 14.027 20.135 14.0032 20.1471C13.965 20.164 13.9401 20.1696 13.9239 20.1698C13.8592 20.1292 14.0065 19.969 14.1275 19.8279C14.3427 19.5532 14.5233 19.2738 14.5547 19.0748C14.5884 18.8758 14.4287 18.7713 14.1045 18.8188C14.0251 18.8302 13.9378 18.8505 13.8484 18.8792C13.747 18.9124 13.6107 18.9681 13.512 19.0195C13.4493 19.0464 13.2084 19.2081 13.3649 19.1241C13.4077 19.0837 13.5048 19.0298 13.6251 18.7702C13.681 18.6411 13.7323 18.4369 13.6989 18.2035C13.665 17.9636 13.5568 17.7722 13.442 17.6409C13.2032 17.3835 13.0389 17.3559 12.9617 17.3244C12.8778 17.2993 12.8674 17.2992 12.8641 17.2944C12.8454 17.2789 12.9054 17.2671 13.0134 17.2426C13.1803 17.2035 13.3696 17.1567 13.5868 17.1012C14.2374 16.9235 15.2543 15.8044 13.3952 15.9489ZM90.4574 20.8796C94.6626 21.526 89.9199 20.5278 88.865 20.0708C98.7199 21.1855 87.7513 19.9923 86.8984 18.8395C85.6564 18.9751 83.3144 19.3607 85.7945 19.8653C86.8316 20.0775 86.4864 19.7186 86.5503 19.7282C88.4547 20.0586 88.1586 20.5318 90.4574 20.8796ZM40.2527 12.2079C40.1 12.2588 40.4228 12.5468 39.9432 12.7296C39.4647 12.9113 38.2911 12.931 38.2246 13.1694C38.1725 13.4046 40.442 13.0506 41.1094 12.7371C41.765 12.4237 41.6428 11.7502 40.2527 12.2079ZM24.2358 15.276C22.2702 16.0683 25.9621 16.4213 26.3789 16.3097C30.2893 15.2193 24.2395 15.6924 24.2358 15.276ZM80.3847 21.7999C85.5316 21.7692 81.9747 20.1603 78.8514 19.1046C78.4112 19.1942 77.9626 19.2837 77.5331 19.3745C79.5459 18.7537 83.0157 18.2943 75.4376 18.188C79.5144 18.8393 76.076 18.6877 76.0317 18.7316C75.4158 20.2249 81.5506 20.2049 80.3802 21.7994C80.3817 21.7996 80.3832 21.7997 80.3847 21.7999ZM47.0579 11.0758C49.2324 10.5923 54.8351 9.18449 52.0598 9.05343C50.384 9.71898 48.7216 10.3925 47.0579 11.0758ZM162.937 35.8771C164.605 36.6707 166.24 37.0405 168.285 37.646C166.585 36.5439 167.847 36.8468 168.507 36.9091C169.551 37.0181 167.189 36.3027 167.187 36.2802C167.376 35.7857 168.935 36.0882 165.422 35.1882C166.314 35.2182 167.263 35.2718 168.167 35.3427C165.489 34.5626 164.921 34.1014 163.298 33.275C164.731 34.6863 162.683 33.5243 160.571 33.5968C159.52 33.6327 162.087 35.4702 162.944 35.8787C162.942 35.8782 162.939 35.8776 162.937 35.8771ZM85.6027 22.6678C86.1519 22.5495 86.6553 22.3587 87.1903 22.2126C87.7431 22.2656 88.3037 22.3229 88.8515 22.3767C88.8968 22.5512 88.9298 22.7317 88.9873 22.9014C89.7043 23.0483 89.4541 22.7799 89.6725 22.7878C89.6723 22.7887 89.6722 22.7895 89.6721 22.7904C92.8023 22.9117 94.0668 23.1299 96.4078 23.9926C96.482 23.4871 96.5561 22.9816 96.6302 22.4761C96.0792 22.4445 95.5259 22.412 94.9716 22.3798C94.6423 22.6096 94.3126 22.8396 93.9849 23.07C93.3791 22.8302 92.7764 22.5926 92.1658 22.3537C91.6463 22.3802 91.029 22.3989 90.5798 22.4338C88.2534 20.6692 93.8473 22.4266 93.9746 21.8511C94.0681 21.4744 88.3001 20.6862 87.4309 20.8426C87.3077 20.8652 88.4082 22.0838 86.3789 21.2557C86.0725 21.129 86.2265 18.8741 83.8085 20.3341C83.7818 20.35 83.7547 20.3663 83.7273 20.383C83.6173 20.45 83.6302 20.6411 83.738 20.8888C83.9779 21.455 84.7035 22.3165 85.6027 22.6678ZM106.328 26.435C103.336 24.465 114.981 27.9094 110.043 25.8875C111.615 25.457 111.344 25.4215 109.962 24.5904C109.841 24.5163 110.891 24.4977 110.808 24.4605C109.479 23.9096 107.787 23.8181 107.87 23.222C107.491 23.1942 107.134 23.1667 106.755 23.1393C108.223 23.9456 105.69 23.9302 104.658 24.2544C104.189 24.4006 105.181 24.623 104.784 24.7532C104.638 24.8001 103.261 24.4465 103.174 24.6343C102.987 25.06 103.77 25.7941 105.206 26.3544C105.206 26.3548 105.206 26.3553 105.206 26.3557C105.583 26.3849 105.95 26.4066 106.328 26.435ZM37.2247 18.67C36.6752 17.8561 34.4401 17.6076 38.7307 17.2365C38.5218 17.0743 38.3076 16.9136 38.1005 16.7518C37.3674 16.7604 36.6584 16.7716 35.9377 16.7841C33.7247 19.1728 29.7274 16.5337 32.2918 18.1969C32.5675 18.3776 34.2948 18.1554 32.5981 18.6734C32.6004 18.6739 32.6026 18.6743 32.6049 18.6747C34.96 18.4989 35.2688 18.2126 37.2247 18.67ZM53.0004 18.5632C58.5333 17.1298 45.5239 17.2507 47.6772 17.8235C47.8641 17.8604 53.4587 17.7494 53.0004 18.5632ZM14.8889 15.2359C12.5146 15.9775 12.5628 17.0456 12.9872 17.2108C13.3339 17.4085 14.9032 16.5101 15.0871 16.5127C15.8178 16.4569 14.4279 17.0309 15.3698 16.9729C15.6978 16.9258 19.8372 16.0383 20.0456 15.9498C20.9987 15.4497 19.3102 15.1369 19.5693 14.9728C20.4364 14.4267 21.8975 14.4345 22.0613 13.97C22.4467 12.9665 20.1978 14.5286 19.8057 14.659C18.5359 15.0645 18.5516 14.5542 17.5549 14.746C16.5894 14.9314 16.0095 15.283 15.1693 15.5152C14.8788 15.5965 15.0136 15.1989 14.8889 15.2359ZM17.4356 18.2346C14.9216 19.0944 21.1627 19.4617 21.8789 19.2775C24.0139 18.6824 18.6285 17.8111 17.4356 18.2346ZM98.5888 22.9992C96.2128 23.1574 101.515 24.362 103.082 24.4021C102.83 24.1484 99.4078 22.9428 98.5888 22.9992ZM78.9751 21.6301C81.144 21.7279 78.412 20.2508 76.6579 20.0754C75.5421 20.7071 76.5283 20.6649 77.6784 20.8269C78.8329 20.9906 77.2972 21.5592 78.9751 21.6301ZM40.8859 9.32734C40.4137 9.40986 33.3053 11.7207 37.5296 10.9905C37.8651 10.9248 42.9077 9.66091 43.2872 9.46525C44.0173 9.06408 42.0482 9.09671 40.8859 9.32734ZM68.6818 21.6609C69.8705 21.1198 70.9612 21.2359 70.0083 20.3777C70.0068 20.3776 70.0053 20.3774 70.0038 20.3773C72.8727 20.4221 72.8541 21.9952 73.4591 22.0231C75.6082 22.1329 73.6965 20.8137 75.0844 20.5958C71.9217 20.6045 72.8913 19.9546 70.5063 19.6704C69.9834 19.6077 67.7812 19.8513 67.4463 20.1022C67.1093 20.3515 68.1258 21.2812 68.6818 21.6609ZM51.1738 6.94141C48.6412 7.20655 46.6166 8.71297 50.0619 8.16086C51.7532 7.89448 52.7089 6.78414 51.1738 6.94141ZM121.034 37.2214C121.413 37.5018 121.808 37.7811 122.226 38.0591C121.27 38.1149 120.387 38.1725 119.428 38.2285C120.183 38.1507 120.891 38.0733 121.641 37.996C119.901 37.8793 119.127 37.3677 121.03 37.2214C121.031 37.2214 121.033 37.2214 121.034 37.2214ZM152.88 40.9581C153.682 41.2302 155.187 40.4181 155.001 40.3526C153.576 39.865 151.773 40.581 152.88 40.9581ZM101.618 25.9833C104.459 26.5369 102.698 24.9109 100.957 24.5534C101.99 24.9694 100.007 25.6713 101.618 25.9833ZM131.049 40.6579C130.788 40.5396 130.525 40.4213 130.234 40.3025C131.154 40.474 131.311 40.5835 131.049 40.6579ZM39.4594 8.4415C39.0053 8.43751 35.7726 9.10602 35.3851 9.33164C34.5509 9.80474 37.2044 9.93034 38.6235 9.37064C38.777 9.30962 39.914 8.44239 39.4526 8.44305C39.4548 8.44253 39.4571 8.44201 39.4594 8.4415ZM117.12 36.6596C117.125 36.6724 117.122 36.6846 117.113 36.6957C117.116 36.6838 117.116 36.6715 117.12 36.6596ZM118.301 33.2152C118.319 33.2364 118.328 33.2573 118.325 33.277C118.319 33.2574 118.305 33.2366 118.301 33.2152ZM16.6247 13.1463C15.199 12.2343 12.848 13.7098 15.0506 13.6642C15.1465 13.6666 16.3903 13.212 16.6247 13.1463Z" fill="var(--stroke-0, #47BEFF)"/>
</g>
</svg>
