<svg preserveAspectRatio="none" width="100%" height="100%" overflow="visible" style="display: block;" viewBox="0 0 197 52" fill="none" xmlns="http://www.w3.org/2000/svg">
<g id="Group 28">
<g id="&#231;&#173;&#148;&#230;&#161;&#136;&#228;&#185;&#139;&#228;&#185;&#166;">
<path id="Vector" d="M185.12 24.5521H191.024C191.024 24.5521 191.008 24.6961 190.976 24.9841C190.976 25.2721 190.96 25.6081 190.928 25.9921C190.928 26.3441 190.912 26.6481 190.88 26.9041C190.656 30.1041 190.384 32.7441 190.064 34.8241C189.776 36.9041 189.456 38.5521 189.104 39.7681C188.752 40.9521 188.288 41.8321 187.712 42.4081C187.072 43.0801 186.368 43.5601 185.6 43.8481C184.832 44.1361 183.952 44.3121 182.96 44.3761C182.096 44.4721 180.976 44.5201 179.6 44.5201C178.256 44.5201 176.832 44.5041 175.328 44.4721C175.264 43.6081 175.04 42.6641 174.656 41.6401C174.304 40.5841 173.872 39.6881 173.36 38.9521C174.832 39.0801 176.256 39.1601 177.632 39.1921C179.008 39.2241 180.016 39.2401 180.656 39.2401C181.136 39.2401 181.536 39.2081 181.856 39.1441C182.176 39.0801 182.496 38.9361 182.816 38.7121C183.2 38.3921 183.52 37.7201 183.776 36.6961C184.064 35.6721 184.304 34.2321 184.496 32.3761C184.72 30.5201 184.928 28.1841 185.12 25.3681V24.5521ZM163.472 3.67212H169.424V48.4081H163.472V3.67212ZM147.728 24.5521H188V29.9761H147.728V24.5521ZM150.32 11.5921H184.064V28.2001H178.256V17.1601H150.32V11.5921Z" fill="url(#paint0_linear_0_20)"/>
<path id="Vector_2" d="M101.456 12.4561H136.304V18.1201H101.456V12.4561ZM117.92 3.57613H123.872V15.1441H117.92V3.57613ZM134.528 12.4561H135.776L136.928 12.1681L141.296 14.9041C139.792 17.4641 138.032 20.0401 136.016 22.6321C134 25.2241 131.824 27.7521 129.488 30.2161C127.184 32.6481 124.8 34.9361 122.336 37.0801C119.872 39.1921 117.424 41.0641 114.992 42.6961C114.48 42.0561 113.824 41.3521 113.024 40.5841C112.256 39.7841 111.52 39.1441 110.816 38.6641C113.152 37.1601 115.488 35.4161 117.824 33.4321C120.16 31.4161 122.384 29.2881 124.496 27.0481C126.64 24.7761 128.576 22.5041 130.304 20.2321C132.032 17.9601 133.44 15.8321 134.528 13.8481V12.4561ZM110.96 33.2401C112.048 35.7681 113.6 37.6721 115.616 38.9521C117.632 40.2001 119.968 41.0481 122.624 41.4961C125.28 41.9441 128.144 42.1681 131.216 42.1681C131.664 42.1681 132.272 42.1681 133.04 42.1681C133.84 42.1681 134.72 42.1681 135.68 42.1681C136.672 42.1681 137.664 42.1681 138.656 42.1681C139.648 42.1681 140.576 42.1681 141.44 42.1681C142.336 42.1361 143.072 42.1201 143.648 42.1201C143.36 42.5361 143.072 43.0961 142.784 43.8001C142.528 44.4721 142.288 45.1601 142.064 45.8641C141.872 46.6001 141.728 47.2561 141.632 47.8321H139.328H130.784C126.88 47.8321 123.36 47.4961 120.224 46.8241C117.088 46.1521 114.32 44.9041 111.92 43.0801C109.552 41.2561 107.568 38.6161 105.968 35.1601L110.96 33.2401Z" fill="url(#paint1_linear_0_20)"/>
<path id="Vector_3" d="M70.064 3.57613H75.872V10.0081H70.064V3.57613ZM69.968 29.7841H75.728V48.6001H69.968V29.7841ZM52.4 6.79212H93.68V14.1361H88.16V11.4961H57.728V14.1361H52.4V6.79212ZM52.064 15.0481H94.016V19.5601H52.064V15.0481ZM51.2 33.0481H94.928V37.8001H51.2V33.0481ZM67.76 11.2561L73.136 12.7921C72.112 14.2321 71.008 15.7361 69.824 17.3041C68.64 18.8401 67.488 20.3281 66.368 21.7681C65.248 23.1761 64.208 24.4241 63.248 25.5121L58.5 25.2721C59.492 24.1521 61.348 22.2961 62.5 20.8561C63.684 19.3841 65.184 17.536 66.368 16C67.552 14.432 66.832 12.6321 67.76 11.2561ZM61.664 24.3121L64.832 20.8561C66.944 21.2401 69.036 21.924 71.5 22.5C73.964 23.044 76.624 23.4321 79.088 24.0721C81.584 24.7121 83.936 25.3681 86.144 26.0401C88.384 26.7121 90.336 27.3681 92 28.0081L88.592 32.0401C87.088 31.4001 85.264 30.7281 83.12 30.0241C80.976 29.3201 78.672 28.6161 76.208 27.9121C73.744 27.2081 71.264 26.5521 68.768 25.9441C66.272 25.3041 63.904 24.7601 61.664 24.3121ZM68.528 35.7841L72.8 37.7041C71.328 39.3041 69.552 40.7921 67.472 42.1681C65.424 43.5121 63.2 44.6961 60.8 45.7201C58.432 46.7441 56.016 47.5601 53.552 48.1681C53.328 47.6881 53.008 47.1601 52.592 46.5841C52.176 46.0081 51.744 45.4321 51.296 44.8561C50.848 44.3121 50.416 43.8641 50 43.5121C52.4 43.0961 54.784 42.5041 57.152 41.7361C59.52 40.9681 61.68 40.0881 63.632 39.0961C65.616 38.0721 67.248 36.9681 68.528 35.7841ZM77.168 35.6881C78.512 36.8401 80.192 37.9281 82.208 38.9521C84.256 39.9441 86.48 40.8081 88.88 41.5441C91.312 42.2801 93.76 42.8401 96.224 43.2241C95.808 43.6401 95.36 44.1361 94.88 44.7121C94.4 45.2881 93.952 45.8641 93.536 46.4401C93.152 47.0481 92.816 47.6081 92.528 48.1201C90.096 47.5121 87.664 46.6961 85.232 45.6721C82.832 44.6481 80.576 43.4481 78.464 42.0721C76.352 40.6641 74.528 39.1441 72.992 37.5121L77.168 35.6881Z" fill="url(#paint2_linear_0_20)"/>
<path id="Vector_4" d="M15.344 25.0321H34.736V29.7361H15.344V25.0321ZM13.856 42.4081H36.224V47.3521H13.856V42.4081ZM24.8 19.5121C23.424 21.1441 21.696 22.7761 19.616 24.4081C17.536 26.0401 15.264 27.5761 12.8 29.0161C10.336 30.4561 7.808 31.7201 5.216 32.8081C4.896 32.1681 4.432 31.4161 3.824 30.5521C3.216 29.6561 2.64 28.9201 2.096 28.3441C4.816 27.3201 7.424 26.0721 9.92 24.6001C12.448 23.0961 14.736 21.4961 16.784 19.8001C18.864 18.0721 20.544 16.3761 21.824 14.7121H27.296C29.088 16.7281 31.104 18.6001 33.344 20.3281C35.584 22.0241 37.952 23.5281 40.448 24.8401C42.976 26.1201 45.504 27.1441 48.032 27.9121C47.392 28.5841 46.768 29.3681 46.16 30.2641C45.584 31.1281 45.072 31.9441 44.624 32.7121C42.288 31.7521 39.856 30.5681 37.328 29.1601C34.832 27.7201 32.48 26.1681 30.272 24.5041C28.096 22.8401 26.272 21.1761 24.8 19.5121ZM10.64 32.9521H39.392V48.5041H33.68V37.8481H16.16V48.6481H10.64V32.9521ZM28.16 7.36812H46.784V12.1681H28.16V7.36812ZM28.928 3.00012L34.544 4.34412C33.744 6.68012 32.656 8.93612 31.28 11.1121C29.904 13.2561 28.48 15.0321 27.008 16.4401C26.624 16.1201 26.128 15.7681 25.52 15.3841C24.944 14.9681 24.352 14.5521 23.744 14.1361C23.136 13.7201 22.592 13.4001 22.112 13.1761C23.584 11.9601 24.928 10.4401 26.144 8.61612C27.36 6.79212 28.288 4.92012 28.928 3.00012ZM31.808 11.1121L36.8 9.38412C37.632 10.3761 38.48 11.4961 39.344 12.7441C40.208 13.9601 40.848 15.0321 41.264 15.9601L35.936 17.8801C35.584 16.9521 35.008 15.8481 34.208 14.5681C33.408 13.2881 32.608 12.1361 31.808 11.1121Z" fill="url(#paint3_linear_0_20)"/>
</g>
<path id="Star 3" d="M188.527 1.71158C188.66 1.23186 189.34 1.23186 189.473 1.71158C190.253 4.53831 192.462 6.74688 195.288 7.5274C195.768 7.65986 195.768 8.34014 195.288 8.4726C192.462 9.25312 190.253 11.4617 189.473 14.2884C189.34 14.7681 188.66 14.7681 188.527 14.2884C187.747 11.4617 185.538 9.25312 182.712 8.4726C182.232 8.34014 182.232 7.65986 182.712 7.5274C185.538 6.74688 187.747 4.53831 188.527 1.71158Z" fill="var(--fill-0, #A26E39)"/>
<path id="Star 4" d="M104.057 38.6046C104.181 38.1549 104.819 38.1549 104.943 38.6046C105.675 41.2547 107.745 43.3252 110.395 44.0569C110.845 44.1811 110.845 44.8189 110.395 44.9431C107.745 45.6748 105.675 47.7453 104.943 50.3954C104.819 50.8451 104.181 50.8451 104.057 50.3954C103.325 47.7453 101.255 45.6748 98.6046 44.9431C98.1549 44.8189 98.1549 44.1811 98.6046 44.0569C101.255 43.3252 103.325 41.2547 104.057 38.6046Z" fill="var(--fill-0, #A87840)"/>
<path id="Star 5" d="M9.40925 2.13947C9.57482 1.53982 10.4252 1.53982 10.5908 2.13948C11.5664 5.67288 14.3271 8.4336 17.8605 9.40925C18.4602 9.57482 18.4602 10.4252 17.8605 10.5908C14.3271 11.5664 11.5664 14.3271 10.5908 17.8605C10.4252 18.4602 9.57482 18.4602 9.40925 17.8605C8.4336 14.3271 5.67288 11.5664 2.13948 10.5908C1.53982 10.4252 1.53982 9.57482 2.13948 9.40925C5.67288 8.4336 8.4336 5.67288 9.40925 2.13947Z" fill="var(--fill-0, #B58A50)"/>
<path id="Star 7" d="M63.7565 19.3176C63.9379 19.063 64.3392 19.1914 64.3392 19.504C64.3392 21.9599 65.9788 24.1135 68.3461 24.7672L69.5436 25.0979C69.9518 25.2106 69.9518 25.7894 69.5436 25.9021L69.1814 26.0021C66.1781 26.8314 63.8314 29.1781 63.0021 32.1814C62.8614 32.6912 62.1386 32.6912 61.9979 32.1814C61.1686 29.1781 58.8219 26.8314 55.8186 26.0021C55.3088 25.8614 55.3088 25.1386 55.8186 24.9979L56.6366 24.772C59.2398 24.0532 61.5164 22.4604 63.0839 20.2612L63.7565 19.3176Z" fill="var(--fill-0, #AF8148)"/>
</g>
<defs>
<linearGradient id="paint0_linear_0_20" x1="-42.508" y1="31.3281" x2="236.492" y2="31.3281" gradientUnits="userSpaceOnUse">
<stop stop-color="#BB9256"/>
<stop offset="1" stop-color="#9B632F"/>
</linearGradient>
<linearGradient id="paint1_linear_0_20" x1="-42.508" y1="31.3281" x2="236.492" y2="31.3281" gradientUnits="userSpaceOnUse">
<stop stop-color="#BB9256"/>
<stop offset="1" stop-color="#9B632F"/>
</linearGradient>
<linearGradient id="paint2_linear_0_20" x1="-42.508" y1="31.3281" x2="236.492" y2="31.3281" gradientUnits="userSpaceOnUse">
<stop stop-color="#BB9256"/>
<stop offset="1" stop-color="#9B632F"/>
</linearGradient>
<linearGradient id="paint3_linear_0_20" x1="-42.508" y1="31.3281" x2="236.492" y2="31.3281" gradientUnits="userSpaceOnUse">
<stop stop-color="#BB9256"/>
<stop offset="1" stop-color="#9B632F"/>
</linearGradient>
</defs>
</svg>
