<svg width="189" height="44" viewBox="0 0 189 44" fill="none" xmlns="http://www.w3.org/2000/svg">
<g id="Frame 134">
<path id="&#231;&#129;&#181;&#230;&#132;&#159;&#233;&#148;&#166;&#229;&#155;&#138;" d="M18.998 20.4239H24.84C24.6253 22.7853 24.3033 24.9779 23.874 27.0019C23.4447 29.0259 22.7853 30.9119 21.896 32.6599C21.0067 34.3773 19.78 35.9413 18.216 37.3519C16.652 38.7319 14.6127 39.9586 12.098 41.0319C9.61401 42.1359 6.54734 43.0559 2.89801 43.7919C2.65268 43.0559 2.25401 42.2126 1.70201 41.2619C1.15001 40.3419 0.582678 39.5906 1.08965e-05 39.0079C3.34268 38.4253 6.11801 37.7199 8.32601 36.8919C10.534 36.0639 12.3127 35.0979 13.662 33.9939C15.0113 32.8593 16.0387 31.6173 16.744 30.2679C17.4493 28.8879 17.9553 27.3853 18.262 25.7599C18.5993 24.1039 18.8447 22.3253 18.998 20.4239ZM7.72801 22.2179L12.512 23.9659C11.96 25.6526 11.27 27.3699 10.442 29.1179C9.61401 30.8659 8.60201 32.3379 7.40601 33.5339L2.80601 30.7739C3.94068 29.7313 4.92201 28.4433 5.75001 26.9099C6.57801 25.3459 7.23734 23.7819 7.72801 22.2179ZM34.914 21.9879L39.698 24.7479C38.8087 26.2506 37.8887 27.7839 36.938 29.3479C35.9873 30.8813 35.098 32.2153 34.27 33.3499L30.13 30.8199C30.682 30.0533 31.2493 29.1793 31.832 28.1979C32.4147 27.1859 32.982 26.1433 33.534 25.0699C34.086 23.9659 34.546 22.9386 34.914 21.9879ZM23.874 24.2879C24.702 27.0479 25.9287 29.4093 27.554 31.3719C29.1793 33.3039 31.2953 34.8373 33.902 35.9719C36.5087 37.0759 39.744 37.8273 43.608 38.2259C43.24 38.5939 42.8413 39.0693 42.412 39.6519C42.0133 40.2653 41.63 40.8786 41.262 41.4919C40.9247 42.1359 40.6487 42.7339 40.434 43.2859C37.306 42.7646 34.592 42.0133 32.292 41.0319C29.992 40.0813 28.014 38.8699 26.358 37.3979C24.7327 35.8953 23.3373 34.1166 22.172 32.0619C21.0373 29.9766 20.0867 27.5846 19.32 24.8859L23.874 24.2879ZM6.11801 8.69393H36.064V12.5119H6.11801V8.69393ZM4.09401 1.60993H38.364V19.5039H4.09401V14.6279H33.074V6.48593H4.09401V1.60993ZM79.948 2.25393L83.168 -6.59227e-05C83.9653 0.4906 84.8087 1.07327 85.698 1.74793C86.618 2.4226 87.354 3.03593 87.906 3.58793L84.502 6.11793C84.0113 5.5966 83.3213 4.96793 82.432 4.23193C81.5427 3.46527 80.7147 2.80593 79.948 2.25393ZM54.832 4.46193H90.896V8.87793H54.832V4.46193ZM58.42 10.9479H72.634V14.6279H58.42V10.9479ZM84.456 10.0739L89.424 11.2699C87.9827 15.1033 86.0507 18.5379 83.628 21.5739C81.2053 24.6099 78.476 27.0939 75.44 29.0259C75.1947 28.6886 74.842 28.2899 74.382 27.8299C73.922 27.3699 73.4467 26.9099 72.956 26.4499C72.496 25.9593 72.082 25.5759 71.714 25.2999C74.6273 23.6746 77.188 21.5586 79.396 18.9519C81.6347 16.3146 83.3213 13.3553 84.456 10.0739ZM73.37 0.183934H78.568C78.5373 3.67993 78.6753 6.91527 78.982 9.88993C79.2887 12.8339 79.7487 15.4253 80.362 17.6639C81.006 19.8719 81.788 21.5893 82.708 22.8159C83.628 24.0119 84.686 24.6099 85.882 24.6099C86.434 24.6099 86.8173 24.1806 87.032 23.3219C87.2773 22.4633 87.4613 21.0373 87.584 19.0439C88.136 19.5346 88.8107 19.9946 89.608 20.4239C90.436 20.8226 91.172 21.1293 91.816 21.3439C91.6013 23.5213 91.2487 25.2079 90.758 26.4039C90.298 27.5693 89.654 28.3819 88.826 28.8419C88.0287 29.3019 86.9707 29.5319 85.652 29.5319C83.352 29.5319 81.42 28.7959 79.856 27.3239C78.3227 25.8519 77.0807 23.7819 76.13 21.1139C75.21 18.4459 74.52 15.3333 74.06 11.7759C73.6307 8.2186 73.4007 4.3546 73.37 0.183934ZM52.21 4.46193H57.316V11.5459C57.316 12.9259 57.2393 14.4439 57.086 16.0999C56.9633 17.7559 56.7333 19.4426 56.396 21.1599C56.0587 22.8773 55.568 24.5486 54.924 26.1739C54.3107 27.7686 53.498 29.2253 52.486 30.5439C52.21 30.2066 51.8113 29.8079 51.29 29.3479C50.7993 28.8879 50.2933 28.4586 49.772 28.0599C49.2507 27.6306 48.7907 27.3393 48.392 27.1859C49.5573 25.6219 50.4007 23.9199 50.922 22.0799C51.474 20.2093 51.8267 18.3539 51.98 16.5139C52.1333 14.6739 52.21 12.9873 52.21 11.4539V4.46193ZM58.65 30.4059H64.262V37.0299C64.262 37.6739 64.446 38.0726 64.814 38.2259C65.182 38.3793 66.0253 38.4559 67.344 38.4559C67.5893 38.4559 67.9573 38.4559 68.448 38.4559C68.9387 38.4559 69.506 38.4559 70.15 38.4559C70.794 38.4559 71.438 38.4559 72.082 38.4559C72.726 38.4559 73.324 38.4559 73.876 38.4559C74.428 38.4559 74.8573 38.4559 75.164 38.4559C75.9307 38.4559 76.498 38.3486 76.866 38.1339C77.2647 37.8886 77.5407 37.3979 77.694 36.6619C77.878 35.8953 78.016 34.7606 78.108 33.2579C78.5067 33.5033 78.9973 33.7486 79.58 33.9939C80.1933 34.2086 80.822 34.4079 81.466 34.5919C82.11 34.7453 82.6773 34.8833 83.168 35.0059C82.9533 37.0606 82.5853 38.6553 82.064 39.7899C81.5427 40.9246 80.776 41.6913 79.764 42.0899C78.752 42.5193 77.3413 42.7339 75.532 42.7339C75.256 42.7339 74.8113 42.7339 74.198 42.7339C73.6153 42.7339 72.956 42.7339 72.22 42.7339C71.5147 42.7339 70.7787 42.7339 70.012 42.7339C69.276 42.7339 68.6167 42.7339 68.034 42.7339C67.482 42.7339 67.068 42.7339 66.792 42.7339C64.6453 42.7339 62.9893 42.5653 61.824 42.2279C60.6587 41.8906 59.8307 41.3079 59.34 40.4799C58.88 39.6826 58.65 38.5633 58.65 37.1219V30.4059ZM66.056 30.0379L70.38 28.1059C71.024 28.7193 71.714 29.4246 72.45 30.2219C73.2167 30.9886 73.9373 31.7553 74.612 32.5219C75.2867 33.2579 75.8387 33.9173 76.268 34.4999L71.668 36.7999C71.3 36.1866 70.794 35.4966 70.15 34.7299C69.506 33.9326 68.816 33.1353 68.08 32.3379C67.3747 31.5099 66.7 30.7433 66.056 30.0379ZM81.512 31.7859L86.434 30.2219C87.0167 31.1419 87.6147 32.1386 88.228 33.2119C88.872 34.2853 89.47 35.3433 90.022 36.3859C90.6047 37.3979 91.0647 38.3026 91.402 39.0999L86.112 40.8939C85.836 40.1273 85.4373 39.2226 84.916 38.1799C84.4253 37.1066 83.8733 36.0179 83.26 34.9139C82.6773 33.7793 82.0947 32.7366 81.512 31.7859ZM52.992 31.0499L57.914 32.7979C57.3313 34.1473 56.672 35.6499 55.936 37.3059C55.2307 38.9619 54.51 40.3879 53.774 41.5839L48.576 39.5139C49.128 38.7473 49.68 37.8886 50.232 36.9379C50.784 35.9566 51.3053 34.9599 51.796 33.9479C52.2867 32.9359 52.6853 31.9699 52.992 31.0499ZM62.928 20.2399V23.6439H67.942V20.2399H62.928ZM58.512 16.5599H72.174V27.2779H58.512V16.5599ZM101.706 0.229934L106.582 1.65593C106.03 3.4346 105.355 5.21327 104.558 6.99193C103.791 8.7706 102.933 10.4419 101.982 12.0059C101.031 13.5699 99.9887 14.9499 98.854 16.1459C98.7313 15.7473 98.5167 15.2106 98.21 14.5359C97.9033 13.8306 97.566 13.1406 97.198 12.4659C96.8607 11.7606 96.554 11.1933 96.278 10.7639C97.4433 9.47593 98.486 7.91193 99.406 6.07193C100.357 4.20127 101.123 2.25393 101.706 0.229934ZM102.442 4.69193H114.218V9.93594H101.384L102.442 4.69193ZM103.454 43.1019L102.488 38.2719L103.96 36.5239L113.068 31.4639C113.16 32.1999 113.313 33.0433 113.528 33.9939C113.773 34.9446 114.003 35.6959 114.218 36.2479C112.133 37.4746 110.431 38.4866 109.112 39.2839C107.793 40.0813 106.766 40.7099 106.03 41.1699C105.294 41.6606 104.727 42.0439 104.328 42.3199C103.96 42.6266 103.669 42.8873 103.454 43.1019ZM99.958 13.2479H112.976V18.1699H99.958V13.2479ZM97.612 22.6779H113.85V27.6459H97.612V22.6779ZM103.454 43.1019C103.301 42.7646 103.055 42.3659 102.718 41.9059C102.411 41.4459 102.089 41.0013 101.752 40.5719C101.415 40.1426 101.108 39.7899 100.832 39.5139C101.2 39.2379 101.583 38.8699 101.982 38.4099C102.411 37.9193 102.779 37.3519 103.086 36.7079C103.393 36.0333 103.546 35.2819 103.546 34.4539V14.1219H108.468V37.3519C108.468 37.3519 108.299 37.4899 107.962 37.7659C107.655 38.0419 107.241 38.4099 106.72 38.8699C106.229 39.2993 105.723 39.7746 105.202 40.2959C104.711 40.8173 104.297 41.3233 103.96 41.8139C103.623 42.3046 103.454 42.7339 103.454 43.1019ZM123.51 0.137935L129.72 0.551932C129.321 1.83993 128.907 3.08193 128.478 4.27793C128.079 5.47393 127.711 6.48593 127.374 7.31393L122.452 6.66993C122.667 5.6886 122.881 4.59993 123.096 3.40393C123.311 2.20793 123.449 1.11927 123.51 0.137935ZM124.154 20.6079H129.49V43.2859H124.154V20.6079ZM115.092 24.3339H135.746V29.1179H120.198V40.5719H115.092V24.3339ZM133.584 24.3339H138.828V35.5119C138.828 36.6466 138.705 37.5513 138.46 38.2259C138.245 38.9006 137.77 39.4373 137.034 39.8359C136.359 40.2039 135.547 40.4186 134.596 40.4799C133.645 40.5719 132.572 40.6179 131.376 40.6179C131.315 39.8819 131.146 39.0846 130.87 38.2259C130.594 37.3673 130.318 36.6006 130.042 35.9259C130.655 35.9566 131.253 35.9719 131.836 35.9719C132.419 35.9719 132.802 35.9719 132.986 35.9719C133.385 35.9719 133.584 35.7879 133.584 35.4199V24.3339ZM121.256 14.7199V17.1579H132.388V14.7199H121.256ZM121.256 8.55593V10.9479H132.388V8.55593H121.256ZM116.15 4.50793H137.678V21.1599H116.15V4.50793ZM157.412 21.7119H162.794V32.8439H157.412V21.7119ZM170.292 21.7119H175.72V32.8439H170.292V21.7119ZM145.958 31.1419H187.404V33.9479H145.958V31.1419ZM164.266 31.6939L167.762 33.2579C166.566 34.0859 165.186 34.8373 163.622 35.5119C162.089 36.1866 160.402 36.7846 158.562 37.3059C156.753 37.7966 154.882 38.2259 152.95 38.5939C151.018 38.9619 149.086 39.2533 147.154 39.4679C146.909 38.9773 146.571 38.4406 146.142 37.8579C145.713 37.2446 145.299 36.7386 144.9 36.3399C146.74 36.1866 148.595 35.9873 150.466 35.7419C152.337 35.4659 154.131 35.1439 155.848 34.7759C157.596 34.3773 159.191 33.9326 160.632 33.4419C162.073 32.9206 163.285 32.3379 164.266 31.6939ZM169.418 31.8319C170.461 33.2733 171.887 34.4999 173.696 35.5119C175.505 36.4933 177.621 37.2906 180.044 37.9039C182.497 38.4866 185.181 38.8853 188.094 39.0999C187.695 39.4986 187.266 40.0506 186.806 40.7559C186.346 41.4613 185.978 42.0746 185.702 42.5959C182.605 42.2586 179.783 41.6759 177.238 40.8479C174.723 40.0199 172.5 38.9466 170.568 37.6279C168.667 36.3093 167.103 34.6839 165.876 32.7519L169.418 31.8319ZM181.654 33.3039L185.012 35.5579C183.632 36.2939 182.129 36.9686 180.504 37.5819C178.879 38.1646 177.391 38.6706 176.042 39.0999L173.19 37.0299C174.11 36.7233 175.076 36.3553 176.088 35.9259C177.131 35.4966 178.143 35.0519 179.124 34.5919C180.105 34.1319 180.949 33.7026 181.654 33.3039ZM163.852 0.183934H169.28V15.0879H163.852V0.183934ZM147.292 2.25393H185.978V5.19793H147.292V2.25393ZM149.408 27.4619H184.322V29.9459H149.408V27.4619ZM148.534 23.7359H185.38V26.3119H148.534V23.7359ZM156.262 8.64794V9.93594H177.606V8.64794H156.262ZM151.248 6.34793H182.896V12.1899H151.248V6.34793ZM156.538 19.0899V20.4239H161V19.0899H156.538ZM152.398 17.0199H165.416V22.5399H152.398V17.0199ZM171.58 19.0899V20.4239H176.18V19.0899H171.58ZM167.394 17.0199H180.596V22.5399H167.394V17.0199ZM146.142 13.3399H187.174V19.1359H182.16V15.8699H150.972V19.1359H146.142V13.3399ZM155.158 43.6999L154.974 40.4799L156.906 39.2379L168.866 37.4439C168.835 37.9959 168.82 38.6093 168.82 39.2839C168.82 39.9586 168.835 40.4953 168.866 40.8939C166.106 41.3539 163.883 41.7373 162.196 42.0439C160.509 42.3506 159.191 42.5959 158.24 42.7799C157.32 42.9946 156.63 43.1633 156.17 43.2859C155.741 43.4086 155.403 43.5466 155.158 43.6999ZM155.158 43.6999C155.035 43.2093 154.821 42.6266 154.514 41.9519C154.207 41.3079 153.916 40.8326 153.64 40.5259C154.039 40.3419 154.437 40.0353 154.836 39.6059C155.265 39.1766 155.48 38.4866 155.48 37.5359V35.3279L160.402 35.4199V39.9739C160.402 39.9739 160.126 40.0966 159.574 40.3419C159.053 40.5873 158.455 40.8939 157.78 41.2619C157.105 41.6299 156.492 42.0286 155.94 42.4579C155.419 42.8873 155.158 43.3013 155.158 43.6999Z" fill="url(#paint0_linear_812_903)"/>
</g>
<defs>
<linearGradient id="paint0_linear_812_903" x1="-1.29199" y1="20.7839" x2="189.708" y2="20.7839" gradientUnits="userSpaceOnUse">
<stop stop-color="#C57B15"/>
<stop offset="1" stop-color="#DBA457"/>
</linearGradient>
</defs>
</svg>
