<svg preserveAspectRatio="none" width="100%" height="100%" overflow="visible" style="display: block;" viewBox="0 0 65.3982 64.7763" fill="none" xmlns="http://www.w3.org/2000/svg">
<path id="Star 2" d="M30.7118 1.77503C30.9797 -0.591679 34.4185 -0.591679 34.6864 1.77503L36.1511 14.7135C36.3503 16.4733 38.5696 17.1249 39.6886 15.7523L47.9158 5.65954C49.4207 3.81338 52.3136 5.67253 51.2595 7.80838L45.4965 19.4848C44.7127 21.0729 46.2274 22.821 47.9109 22.2711L60.2886 18.2286C62.5527 17.4891 63.9813 20.6171 61.9397 21.844L50.7789 28.5512C49.2609 29.4634 49.5901 31.7529 51.3036 32.2005L63.902 35.4916C66.2065 36.0936 65.7171 39.4974 63.3363 39.4257L50.3211 39.0341C48.5509 38.9809 47.59 41.0849 48.7895 42.3878L57.6086 51.9676C59.2218 53.72 56.9699 56.3188 55.0058 54.9714L44.2684 47.6054C42.808 46.6036 40.8622 47.8541 41.1668 49.5987L43.4067 62.4257C43.8164 64.7721 40.5169 65.7409 39.5931 63.5455L34.5425 51.5438C33.8556 49.9114 31.5426 49.9114 30.8557 51.5438L25.8052 63.5455C24.8813 65.7409 21.5818 64.7721 21.9915 62.4258L24.2314 49.5987C24.5361 47.8541 22.5902 46.6036 21.1298 47.6054L10.3924 54.9714C8.42834 56.3188 6.17642 53.72 7.78961 51.9676L16.6087 42.3878C17.8082 41.0849 16.8474 38.9809 15.0772 39.0341L2.06191 39.4257C-0.318845 39.4974 -0.808236 36.0936 1.49626 35.4916L14.0946 32.2005C15.8081 31.7529 16.1373 29.4634 14.6193 28.5512L3.45849 21.844C1.41695 20.6171 2.84547 17.4891 5.1096 18.2286L17.4873 22.2711C19.1708 22.821 20.6855 21.0729 19.9017 19.4848L14.1388 7.80838C13.0846 5.67253 15.9775 3.81338 17.4824 5.65954L25.7096 15.7523C26.8286 17.1249 29.0479 16.4733 29.2471 14.7135L30.7118 1.77503Z" fill="var(--fill-0, #F3D0BA)" fill-opacity="0.07"/>
</svg>
