<svg width="86" height="84" viewBox="0 0 86 84" fill="none" xmlns="http://www.w3.org/2000/svg">

<g id="Union" filter="url(#filter0_d_0_1)">
<path d="M42.165 67.582L12.3008 40.9482L42.165 55.375L73.3008 40.9482L42.165 67.582ZM43.2305 27.2021C47.5009 27.2022 50.9629 30.6641 50.9629 34.9346C50.9627 39.2048 47.5008 42.6669 43.2305 42.667C38.9601 42.667 35.4983 39.2049 35.498 34.9346C35.498 30.6641 38.96 27.2021 43.2305 27.2021ZM43.2305 8.30078C46.0773 8.30084 48.3856 10.6082 48.3857 13.4551C48.3857 16.302 46.0774 18.6103 43.2305 18.6104C40.3835 18.6104 38.0752 16.3021 38.0752 13.4551C38.0753 10.6082 40.3835 8.30078 43.2305 8.30078Z" fill="url(#paint0_linear_0_1)" shape-rendering="crispEdges"/>
</g>
<defs>
<filter id="filter0_d_0_1" x="0.000781059" y="0.000781059" width="85.6" height="83.8813" filterUnits="userSpaceOnUse" color-interpolation-filters="sRGB">
<feFlood flood-opacity="0" result="BackgroundImageFix"/>
<feColorMatrix in="SourceAlpha" type="matrix" values="0 0 0 0 0 0 0 0 0 0 0 0 0 0 0 0 0 0 127 0" result="hardAlpha"/>
<feOffset dy="4"/>
<feGaussianBlur stdDeviation="6.15"/>
<feComposite in2="hardAlpha" operator="out"/>
<feColorMatrix type="matrix" values="0 0 0 0 1 0 0 0 0 1 0 0 0 0 1 0 0 0 0.68 0"/>
<feBlend mode="normal" in2="BackgroundImageFix" result="effect1_dropShadow_0_1"/>
<feBlend mode="normal" in="SourceGraphic" in2="effect1_dropShadow_0_1" result="shape"/>
</filter>
<linearGradient id="paint0_linear_0_1" x1="42.8008" y1="8.30078" x2="42.8008" y2="67.582" gradientUnits="userSpaceOnUse">
<stop stop-color="white" stop-opacity="0.09"/>
<stop offset="0.254808" stop-color="white" stop-opacity="0.321875"/>
<stop offset="1" stop-color="white"/>
</linearGradient>
</defs>
</svg>
