<svg width="66" height="65" viewBox="0 0 66 65" fill="none" xmlns="http://www.w3.org/2000/svg">

<path id="Star 2" d="M30.7125 1.77432C30.9804 -0.592393 34.4192 -0.592393 34.6871 1.77432L36.1518 14.7128C36.351 16.4726 38.5703 17.1242 39.6893 15.7515L47.9165 5.65882C49.4214 3.81266 52.3143 5.67181 51.2602 7.80766L45.4972 19.4841C44.7134 21.0722 46.2281 22.8202 47.9116 22.2704L60.2893 18.2279C62.5534 17.4884 63.982 20.6164 61.9404 21.8433L50.7796 28.5504C49.2616 29.4627 49.5908 31.7521 51.3043 32.1998L63.9026 35.4909C66.2071 36.0929 65.7178 39.4966 63.337 39.425L50.3217 39.0334C48.5516 38.9802 47.5907 41.0842 48.7902 42.3871L57.6093 51.9669C59.2225 53.7193 56.9706 56.3181 55.0065 54.9707L44.2691 47.6047C42.8087 46.6029 40.8628 47.8534 41.1675 49.598L43.4074 62.425C43.8171 64.7714 40.5176 65.7402 39.5938 63.5448L34.5432 51.543C33.8563 49.9107 31.5433 49.9107 30.8564 51.543L25.8059 63.5448C24.882 65.7402 21.5825 64.7714 21.9922 62.425L24.2321 49.598C24.5368 47.8534 22.5909 46.6029 21.1305 47.6047L10.3931 54.9707C8.42904 56.3181 6.17711 53.7193 7.79031 51.9669L16.6094 42.3871C17.8089 41.0842 16.848 38.9802 15.0779 39.0334L2.0626 39.425C-0.318151 39.4966 -0.807542 36.0929 1.49695 35.4909L14.0953 32.1998C15.8088 31.7521 16.138 29.4627 14.62 28.5504L3.45918 21.8433C1.41764 20.6164 2.84616 17.4884 5.1103 18.2279L17.488 22.2704C19.1715 22.8202 20.6862 21.0722 19.9024 19.4841L14.1394 7.80766C13.0853 5.67181 15.9782 3.81267 17.4831 5.65883L25.7103 15.7515C26.8293 17.1242 29.0486 16.4726 29.2478 14.7128L30.7125 1.77432Z" fill="#F3D0BA" fill-opacity="0.07"/>
</svg>
