<svg width="43" height="43" viewBox="0 0 43 43" fill="none" xmlns="http://www.w3.org/2000/svg">
<path d="M34.0417 7.16667H28.3979V6.27083C28.3979 5.73333 28.0396 5.375 27.5021 5.375H25.7104C25.1729 5.375 24.8146 5.73333 24.8146 6.27083V7.16667H17.6479V6.27083C17.6479 5.73333 17.2896 5.375 16.7521 5.375H14.9604C14.4229 5.375 14.0646 5.73333 14.0646 6.27083V7.16667H8.95833C6.9875 7.16667 5.375 8.77917 5.375 10.75V34.0417C5.375 36.0125 6.9875 37.625 8.95833 37.625H34.0417C36.0125 37.625 37.625 36.0125 37.625 34.0417V10.75C37.625 8.77917 36.0125 7.16667 34.0417 7.16667ZM34.0417 32.25C34.0417 33.2354 33.2354 34.0417 32.25 34.0417H10.75C9.76458 34.0417 8.95833 33.2354 8.95833 32.25V19.7083C8.95833 18.7229 9.76458 17.9167 10.75 17.9167H32.25C33.2354 17.9167 34.0417 18.7229 34.0417 19.7083V32.25ZM34.0417 13.4375C34.0417 13.975 33.6833 14.3333 33.1458 14.3333H9.85417C9.31667 14.3333 8.95833 13.975 8.95833 13.4375V11.6458C8.95833 11.1083 9.31667 10.75 9.85417 10.75H14.0646V11.6458C14.0646 12.1833 14.4229 12.5417 14.9604 12.5417H16.7521C17.2896 12.5417 17.6479 12.1833 17.6479 11.6458V10.75H24.8146V11.6458C24.8146 12.1833 25.1729 12.5417 25.7104 12.5417H27.5021C28.0396 12.5417 28.3979 12.1833 28.3979 11.6458V10.75H33.1458C33.6833 10.75 34.0417 11.1083 34.0417 11.6458V13.4375Z" fill="#464953"/>
<path d="M12.5416 21.1416H14.3333C14.8708 21.1416 15.2291 21.5895 15.2291 22.0374V23.8291C15.2291 24.3666 14.7812 24.7249 14.3333 24.7249H12.5416C12.0041 24.7249 11.6458 24.277 11.6458 23.8291V22.0374C11.6458 21.5895 12.0937 21.1416 12.5416 21.1416Z" fill="#464953"/>
<path d="M12.5416 27.2333H14.3333C14.8708 27.2333 15.2291 27.6812 15.2291 28.1291V29.9208C15.2291 30.4583 14.7812 30.8166 14.3333 30.8166H12.5416C12.0041 30.8166 11.6458 30.3687 11.6458 29.9208V28.1291C11.6458 27.6812 12.0937 27.2333 12.5416 27.2333ZM17.9166 21.1416H19.7083C20.2458 21.1416 20.6041 21.5895 20.6041 22.0374V23.8291C20.6041 24.3666 20.1562 24.7249 19.7083 24.7249H17.9166C17.3791 24.7249 17.0208 24.277 17.0208 23.8291V22.0374C17.0208 21.5895 17.4687 21.1416 17.9166 21.1416Z" fill="#464953"/>
<path d="M23.2916 21.1416H25.0833C25.6208 21.1416 25.9791 21.5895 25.9791 22.0374V23.8291C25.9791 24.3666 25.5312 24.7249 25.0833 24.7249H23.2916C22.7541 24.7249 22.3958 24.277 22.3958 23.8291V22.0374C22.3958 21.5895 22.8437 21.1416 23.2916 21.1416Z" fill="#464953"/>
<path d="M28.6666 21.1416H30.4583C30.9958 21.1416 31.3541 21.5895 31.3541 22.0374V23.8291C31.3541 24.3666 30.9062 24.7249 30.4583 24.7249H28.6666C28.1291 24.7249 27.7708 24.277 27.7708 23.8291V22.0374C27.7708 21.5895 28.2187 21.1416 28.6666 21.1416Z" fill="#464953"/>
<path d="M17.9166 27.2334H19.7083C20.2458 27.2334 20.6041 27.6813 20.6041 28.1292V29.9209C20.6041 30.4584 20.1562 30.8167 19.7083 30.8167H17.9166C17.3791 30.8167 17.0208 30.3688 17.0208 29.9209V28.1292C17.0208 27.6813 17.4687 27.2334 17.9166 27.2334Z" fill="#464953"/>
<path d="M23.2916 27.2334H25.0833C25.6208 27.2334 25.9791 27.6813 25.9791 28.1292V29.9209C25.9791 30.4584 25.5312 30.8167 25.0833 30.8167H23.2916C22.7541 30.8167 22.3958 30.3688 22.3958 29.9209V28.1292C22.3958 27.6813 22.8437 27.2334 23.2916 27.2334Z" fill="#464953"/>
<path d="M28.6666 27.2334H30.4583C30.9958 27.2334 31.3541 27.6813 31.3541 28.1292V29.9209C31.3541 30.4584 30.9062 30.8167 30.4583 30.8167H28.6666C28.1291 30.8167 27.7708 30.3688 27.7708 29.9209V28.1292C27.7708 27.6813 28.2187 27.2334 28.6666 27.2334Z" fill="#464953"/>
</svg>
